<svg width="269" height="244" viewBox="0 0 269 244" fill="none" xmlns="http://www.w3.org/2000/svg">
<g filter="url(#filter0_d_1948_6)">
<circle cx="200.543" cy="134.079" r="34.1222" fill="url(#paint0_linear_1948_6)"/>
</g>
<path d="M188.445 140.451V130.396L189.134 130.928H186.111V129.017H190.654V140.451H188.445ZM198.137 140.749C197.239 140.749 196.477 140.603 195.851 140.31C195.224 140.007 194.712 139.6 194.316 139.088C193.919 138.566 193.626 137.971 193.439 137.303C193.261 136.624 193.172 135.914 193.172 135.173V134.296C193.172 133.241 193.35 132.291 193.705 131.445C194.06 130.599 194.603 129.931 195.334 129.44C196.065 128.939 196.999 128.688 198.137 128.688C199.265 128.688 200.194 128.939 200.925 129.44C201.656 129.931 202.194 130.599 202.539 131.445C202.894 132.291 203.071 133.241 203.071 134.296V135.173C203.071 135.914 202.977 136.624 202.789 137.303C202.612 137.971 202.324 138.566 201.928 139.088C201.541 139.6 201.035 140.007 200.408 140.31C199.782 140.603 199.025 140.749 198.137 140.749ZM198.137 138.713C199.067 138.713 199.751 138.394 200.189 137.757C200.628 137.11 200.847 136.107 200.847 134.75C200.847 133.309 200.622 132.28 200.173 131.664C199.724 131.038 199.046 130.725 198.137 130.725C197.218 130.725 196.529 131.038 196.07 131.664C195.621 132.28 195.396 133.299 195.396 134.719C195.396 136.086 195.621 137.094 196.07 137.741C196.519 138.389 197.208 138.713 198.137 138.713ZM207.94 140.451L212.153 129.017H213.954L209.741 140.451H207.94ZM207.125 135.251C206.52 135.251 206.019 135.115 205.622 134.844C205.225 134.562 204.927 134.191 204.729 133.732C204.541 133.272 204.447 132.771 204.447 132.228V131.821C204.447 131.226 204.546 130.704 204.745 130.255C204.943 129.795 205.241 129.44 205.638 129.19C206.045 128.929 206.541 128.798 207.125 128.798C207.731 128.798 208.232 128.929 208.629 129.19C209.026 129.44 209.323 129.795 209.522 130.255C209.72 130.704 209.819 131.226 209.819 131.821V132.228C209.819 132.771 209.72 133.272 209.522 133.732C209.334 134.191 209.042 134.562 208.645 134.844C208.258 135.115 207.752 135.251 207.125 135.251ZM207.125 133.794C207.501 133.794 207.778 133.659 207.956 133.387C208.144 133.105 208.237 132.656 208.237 132.04C208.237 131.372 208.144 130.907 207.956 130.646C207.768 130.385 207.491 130.255 207.125 130.255C206.76 130.255 206.483 130.385 206.295 130.646C206.118 130.907 206.029 131.367 206.029 132.025C206.029 132.641 206.118 133.09 206.295 133.372C206.483 133.654 206.76 133.794 207.125 133.794ZM214.69 140.686C214.085 140.686 213.584 140.55 213.187 140.279C212.79 139.997 212.493 139.626 212.294 139.167C212.106 138.707 212.012 138.206 212.012 137.663V137.256C212.012 136.661 212.111 136.139 212.31 135.69C212.508 135.23 212.806 134.875 213.203 134.625C213.61 134.364 214.106 134.233 214.69 134.233C215.296 134.233 215.797 134.364 216.194 134.625C216.591 134.875 216.888 135.23 217.087 135.69C217.285 136.139 217.384 136.661 217.384 137.256V137.663C217.384 138.206 217.285 138.707 217.087 139.167C216.899 139.626 216.607 139.997 216.21 140.279C215.823 140.55 215.317 140.686 214.69 140.686ZM214.69 139.229C215.066 139.229 215.343 139.094 215.521 138.822C215.709 138.54 215.803 138.091 215.803 137.475C215.803 136.807 215.709 136.342 215.521 136.081C215.333 135.82 215.056 135.69 214.69 135.69C214.325 135.69 214.048 135.82 213.86 136.081C213.683 136.342 213.594 136.802 213.594 137.46C213.594 138.076 213.683 138.525 213.86 138.807C214.048 139.088 214.325 139.229 214.69 139.229Z" fill="white"/>
<g filter="url(#filter1_d_1948_6)">
<circle cx="137.553" cy="82.8953" r="59.8953" fill="url(#paint1_linear_1948_6)"/>
</g>
<path d="M123.2 88.9637C122.277 88.9637 121.491 88.8099 120.842 88.5023C120.204 88.1833 119.686 87.7504 119.287 87.2035C118.888 86.6567 118.598 86.0244 118.415 85.3066C118.233 84.5775 118.142 83.8085 118.142 82.9996V82.2477C118.142 80.2084 118.654 78.6646 119.68 77.6165C120.717 76.557 122.232 76.0272 124.226 76.0272C124.659 76.0272 125.063 76.0386 125.439 76.0614C125.815 76.0842 126.191 76.1183 126.567 76.1639V78.1975C126.191 78.152 125.803 78.1178 125.405 78.095C125.017 78.0722 124.596 78.0608 124.14 78.0608C123.183 78.0608 122.431 78.226 121.884 78.5564C121.338 78.8868 120.944 79.371 120.705 80.009C120.477 80.647 120.363 81.4388 120.363 82.3844V83.4952L119.817 84.2813C119.828 83.404 119.999 82.6806 120.329 82.111C120.671 81.5299 121.138 81.097 121.731 80.8122C122.323 80.516 123.001 80.3679 123.764 80.3679C124.653 80.3679 125.41 80.5444 126.037 80.8976C126.664 81.2508 127.142 81.7407 127.473 82.3673C127.814 82.9939 127.985 83.723 127.985 84.5547C127.985 85.4206 127.792 86.1896 127.404 86.8618C127.017 87.5225 126.464 88.0409 125.747 88.4169C125.04 88.7814 124.191 88.9637 123.2 88.9637ZM123.149 86.9301C123.684 86.9301 124.14 86.8333 124.516 86.6396C124.892 86.4345 125.177 86.1554 125.371 85.8022C125.564 85.449 125.661 85.0446 125.661 84.5889C125.661 84.1218 125.564 83.7116 125.371 83.3585C125.188 83.0053 124.915 82.7319 124.55 82.5382C124.186 82.3445 123.747 82.2477 123.234 82.2477C122.745 82.2477 122.295 82.3388 121.884 82.5211C121.486 82.692 121.167 82.954 120.927 83.3072C120.7 83.649 120.586 84.0762 120.586 84.5889C120.586 85.0332 120.677 85.432 120.859 85.7851C121.053 86.1383 121.338 86.4174 121.713 86.6225C122.101 86.8276 122.579 86.9301 123.149 86.9301ZM135.175 88.9296C134.195 88.9296 133.364 88.7701 132.68 88.4511C131.997 88.1207 131.438 87.6763 131.005 87.1181C130.573 86.5485 130.254 85.8991 130.048 85.1699C129.855 84.4294 129.758 83.6547 129.758 82.8458V81.8888C129.758 80.7381 129.952 79.7014 130.339 78.7786C130.726 77.8557 131.319 77.1266 132.116 76.5911C132.914 76.0443 133.933 75.7709 135.175 75.7709C136.406 75.7709 137.42 76.0443 138.217 76.5911C139.015 77.1266 139.601 77.8557 139.977 78.7786C140.365 79.7014 140.558 80.7381 140.558 81.8888V82.8458C140.558 83.6547 140.456 84.4294 140.251 85.1699C140.057 85.8991 139.744 86.5485 139.311 87.1181C138.889 87.6763 138.337 88.1207 137.653 88.4511C136.97 88.7701 136.144 88.9296 135.175 88.9296ZM135.175 86.708C136.189 86.708 136.935 86.3605 137.414 85.6655C137.892 84.9592 138.132 83.8654 138.132 82.3844C138.132 80.8122 137.887 79.69 137.397 79.0178C136.907 78.3342 136.166 77.9925 135.175 77.9925C134.173 77.9925 133.421 78.3342 132.919 79.0178C132.43 79.69 132.185 80.8008 132.185 82.3502C132.185 83.8427 132.43 84.9421 132.919 85.6484C133.409 86.3548 134.161 86.708 135.175 86.708ZM145.871 88.6049L150.468 76.1297H152.433L147.836 88.6049H145.871ZM144.982 82.9312C144.321 82.9312 143.774 82.7831 143.341 82.4869C142.909 82.1793 142.584 81.7749 142.367 81.2736C142.162 80.7723 142.06 80.2254 142.06 79.633V79.1887C142.06 78.5393 142.168 77.9697 142.384 77.4798C142.601 76.9785 142.926 76.5911 143.359 76.3177C143.803 76.0329 144.344 75.8905 144.982 75.8905C145.643 75.8905 146.19 76.0329 146.623 76.3177C147.056 76.5911 147.38 76.9785 147.597 77.4798C147.813 77.9697 147.921 78.5393 147.921 79.1887V79.633C147.921 80.2254 147.813 80.7723 147.597 81.2736C147.392 81.7749 147.073 82.1793 146.64 82.4869C146.218 82.7831 145.666 82.9312 144.982 82.9312ZM144.982 81.3419C145.392 81.3419 145.694 81.1938 145.888 80.8976C146.093 80.59 146.195 80.1001 146.195 79.4279C146.195 78.6988 146.093 78.1918 145.888 77.907C145.683 77.6222 145.381 77.4798 144.982 77.4798C144.583 77.4798 144.281 77.6222 144.076 77.907C143.883 78.1918 143.786 78.6931 143.786 79.4109C143.786 80.083 143.883 80.5729 144.076 80.8805C144.281 81.1881 144.583 81.3419 144.982 81.3419ZM153.236 88.8612C152.575 88.8612 152.028 88.7131 151.596 88.4169C151.163 88.1093 150.838 87.7048 150.621 87.2035C150.416 86.7023 150.314 86.1554 150.314 85.563V85.1187C150.314 84.4693 150.422 83.8996 150.639 83.4097C150.855 82.9085 151.18 82.5211 151.613 82.2477C152.057 81.9628 152.598 81.8204 153.236 81.8204C153.897 81.8204 154.444 81.9628 154.877 82.2477C155.31 82.5211 155.634 82.9085 155.851 83.4097C156.067 83.8996 156.175 84.4693 156.175 85.1187V85.563C156.175 86.1554 156.067 86.7023 155.851 87.2035C155.646 87.7048 155.327 88.1093 154.894 88.4169C154.472 88.7131 153.92 88.8612 153.236 88.8612ZM153.236 87.2719C153.646 87.2719 153.948 87.1238 154.142 86.8276C154.347 86.52 154.449 86.0301 154.449 85.3579C154.449 84.6288 154.347 84.1218 154.142 83.837C153.937 83.5521 153.635 83.4097 153.236 83.4097C152.837 83.4097 152.535 83.5521 152.33 83.837C152.137 84.1218 152.04 84.6231 152.04 85.3408C152.04 86.013 152.137 86.5029 152.33 86.8105C152.535 87.1181 152.837 87.2719 153.236 87.2719Z" fill="white"/>
<g filter="url(#filter2_d_1948_6)">
<circle cx="82.7388" cy="149" r="48.7388" fill="url(#paint2_linear_1948_6)"/>
</g>
<path d="M70.3288 155.596C69.4517 155.596 68.6947 155.429 68.0577 155.095C67.4312 154.76 66.9509 154.317 66.6168 153.763C66.2826 153.199 66.1156 152.573 66.1156 151.884H68.2614C68.2614 152.437 68.4441 152.886 68.8095 153.231C69.1854 153.565 69.6919 153.732 70.3288 153.732C70.7569 153.732 71.1224 153.654 71.4252 153.497C71.7385 153.33 71.9786 153.105 72.1457 152.823C72.3128 152.531 72.3963 152.197 72.3963 151.821C72.3963 151.257 72.2136 150.798 71.8481 150.443C71.4826 150.077 70.9814 149.895 70.3445 149.895C70.0312 149.895 69.7545 149.936 69.5144 150.02C69.2846 150.103 69.081 150.213 68.9035 150.349L67.8855 148.595L71.6445 146.026L71.5035 145.76H66.5855V143.864H74.0565V146.151L70.1879 148.72L68.9818 148.501C69.1802 148.438 69.3943 148.391 69.624 148.36C69.8537 148.318 70.1043 148.297 70.3758 148.297C71.2425 148.297 71.9838 148.448 72.5999 148.751C73.2264 149.044 73.7067 149.451 74.0409 149.973C74.375 150.495 74.5421 151.095 74.5421 151.774V151.978C74.5421 152.636 74.375 153.241 74.0409 153.795C73.7067 154.338 73.2264 154.776 72.5999 155.11C71.9734 155.434 71.2164 155.596 70.3288 155.596ZM81.2766 155.596C80.3786 155.596 79.6164 155.45 78.9899 155.157C78.3634 154.854 77.8517 154.447 77.4549 153.936C77.0582 153.413 76.7658 152.818 76.5778 152.15C76.4003 151.471 76.3116 150.761 76.3116 150.02V149.143C76.3116 148.088 76.4891 147.138 76.8441 146.292C77.1991 145.446 77.7421 144.778 78.473 144.287C79.2039 143.786 80.1385 143.536 81.2766 143.536C82.4043 143.536 83.3337 143.786 84.0646 144.287C84.7955 144.778 85.3332 145.446 85.6778 146.292C86.0328 147.138 86.2104 148.088 86.2104 149.143V150.02C86.2104 150.761 86.1164 151.471 85.9284 152.15C85.7509 152.818 85.4638 153.413 85.067 153.936C84.6806 154.447 84.1742 154.854 83.5477 155.157C82.9212 155.45 82.1642 155.596 81.2766 155.596ZM81.2766 153.56C82.2059 153.56 82.8899 153.241 83.3284 152.604C83.767 151.957 83.9863 150.954 83.9863 149.597C83.9863 148.156 83.7618 147.127 83.3128 146.511C82.8638 145.885 82.1851 145.572 81.2766 145.572C80.3578 145.572 79.6686 145.885 79.2092 146.511C78.7602 147.127 78.5357 148.146 78.5357 149.566C78.5357 150.934 78.7602 151.941 79.2092 152.589C79.6582 153.236 80.3473 153.56 81.2766 153.56ZM91.0792 155.298L95.2925 143.864H97.0937L92.8804 155.298H91.0792ZM90.2648 150.098C89.6592 150.098 89.1579 149.962 88.7612 149.691C88.3644 149.409 88.0668 149.038 87.8684 148.579C87.6804 148.119 87.5865 147.618 87.5865 147.075V146.668C87.5865 146.073 87.6857 145.551 87.8841 145.102C88.0824 144.642 88.38 144.287 88.7768 144.037C89.1841 143.776 89.68 143.645 90.2648 143.645C90.8704 143.645 91.3716 143.776 91.7684 144.037C92.1652 144.287 92.4628 144.642 92.6612 145.102C92.8595 145.551 92.9587 146.073 92.9587 146.668V147.075C92.9587 147.618 92.8595 148.119 92.6612 148.579C92.4732 149.038 92.1808 149.409 91.784 149.691C91.3977 149.962 90.8913 150.098 90.2648 150.098ZM90.2648 148.642C90.6407 148.642 90.9174 148.506 91.0949 148.234C91.2828 147.952 91.3768 147.503 91.3768 146.887C91.3768 146.219 91.2828 145.754 91.0949 145.493C90.9069 145.232 90.6302 145.102 90.2648 145.102C89.8993 145.102 89.6226 145.232 89.4347 145.493C89.2571 145.754 89.1684 146.214 89.1684 146.872C89.1684 147.488 89.2571 147.937 89.4347 148.219C89.6226 148.501 89.8993 148.642 90.2648 148.642ZM97.8298 155.533C97.2242 155.533 96.723 155.397 96.3262 155.126C95.9294 154.844 95.6318 154.473 95.4334 154.014C95.2455 153.554 95.1515 153.053 95.1515 152.51V152.103C95.1515 151.508 95.2507 150.986 95.4491 150.537C95.6475 150.077 95.9451 149.722 96.3419 149.472C96.7491 149.211 97.2451 149.08 97.8298 149.08C98.4354 149.08 98.9366 149.211 99.3334 149.472C99.7302 149.722 100.028 150.077 100.226 150.537C100.425 150.986 100.524 151.508 100.524 152.103V152.51C100.524 153.053 100.425 153.554 100.226 154.014C100.038 154.473 99.7459 154.844 99.3491 155.126C98.9628 155.397 98.4563 155.533 97.8298 155.533ZM97.8298 154.076C98.2057 154.076 98.4824 153.941 98.6599 153.669C98.8479 153.387 98.9419 152.938 98.9419 152.322C98.9419 151.654 98.8479 151.189 98.6599 150.928C98.472 150.667 98.1953 150.537 97.8298 150.537C97.4644 150.537 97.1877 150.667 96.9997 150.928C96.8222 151.189 96.7334 151.649 96.7334 152.307C96.7334 152.923 96.8222 153.372 96.9997 153.654C97.1877 153.936 97.4644 154.076 97.8298 154.076Z" fill="white"/>
<defs>
<filter id="filter0_d_1948_6" x="132.79" y="78.9379" width="135.505" height="135.505" filterUnits="userSpaceOnUse" color-interpolation-filters="sRGB">
<feFlood flood-opacity="0" result="BackgroundImageFix"/>
<feColorMatrix in="SourceAlpha" type="matrix" values="0 0 0 0 0 0 0 0 0 0 0 0 0 0 0 0 0 0 127 0" result="hardAlpha"/>
<feOffset dy="12.6115"/>
<feGaussianBlur stdDeviation="16.8153"/>
<feColorMatrix type="matrix" values="0 0 0 0 1 0 0 0 0 0.454902 0 0 0 0 0.172549 0 0 0 0.24 0"/>
<feBlend mode="normal" in2="BackgroundImageFix" result="effect1_dropShadow_1948_6"/>
<feBlend mode="normal" in="SourceGraphic" in2="effect1_dropShadow_1948_6" result="shape"/>
</filter>
<filter id="filter1_d_1948_6" x="40.9635" y="0.0664196" width="193.178" height="193.178" filterUnits="userSpaceOnUse" color-interpolation-filters="sRGB">
<feFlood flood-opacity="0" result="BackgroundImageFix"/>
<feColorMatrix in="SourceAlpha" type="matrix" values="0 0 0 0 0 0 0 0 0 0 0 0 0 0 0 0 0 0 127 0" result="hardAlpha"/>
<feOffset dy="13.7601"/>
<feGaussianBlur stdDeviation="18.3469"/>
<feColorMatrix type="matrix" values="0 0 0 0 0.00784314 0 0 0 0 0.686275 0 0 0 0 0.447059 0 0 0 0.24 0"/>
<feBlend mode="normal" in2="BackgroundImageFix" result="effect1_dropShadow_1948_6"/>
<feBlend mode="normal" in="SourceGraphic" in2="effect1_dropShadow_1948_6" result="shape"/>
</filter>
<filter id="filter2_d_1948_6" x="0.369427" y="79.242" width="164.739" height="164.739" filterUnits="userSpaceOnUse" color-interpolation-filters="sRGB">
<feFlood flood-opacity="0" result="BackgroundImageFix"/>
<feColorMatrix in="SourceAlpha" type="matrix" values="0 0 0 0 0 0 0 0 0 0 0 0 0 0 0 0 0 0 127 0" result="hardAlpha"/>
<feOffset dy="12.6115"/>
<feGaussianBlur stdDeviation="16.8153"/>
<feColorMatrix type="matrix" values="0 0 0 0 0.423529 0 0 0 0 0.313726 0 0 0 0 0.988235 0 0 0 0.24 0"/>
<feBlend mode="normal" in2="BackgroundImageFix" result="effect1_dropShadow_1948_6"/>
<feBlend mode="normal" in="SourceGraphic" in2="effect1_dropShadow_1948_6" result="shape"/>
</filter>
<linearGradient id="paint0_linear_1948_6" x1="235" y1="100" x2="166" y2="168" gradientUnits="userSpaceOnUse">
<stop stop-color="#FF742C"/>
<stop offset="1" stop-color="#FF742C" stop-opacity="0.5"/>
</linearGradient>
<linearGradient id="paint1_linear_1948_6" x1="137.553" y1="23" x2="78.0312" y2="143.019" gradientUnits="userSpaceOnUse">
<stop stop-color="#02AF72"/>
<stop offset="1" stop-color="#02AF72" stop-opacity="0.5"/>
</linearGradient>
<linearGradient id="paint2_linear_1948_6" x1="82.7388" y1="100.261" x2="34" y2="197.999" gradientUnits="userSpaceOnUse">
<stop stop-color="#6C50FC"/>
<stop offset="1" stop-color="#6C50FC" stop-opacity="0.5"/>
</linearGradient>
</defs>
</svg>
