<svg width="797" height="377" viewBox="0 0 797 377" fill="none" xmlns="http://www.w3.org/2000/svg">
<g opacity="0.65" filter="url(#filter0_f_1925_340)">
<path d="M79.7964 87.2517C79.7964 79.3807 86.1771 73 94.048 73H746.952C754.823 73 761.204 79.3807 761.204 87.2517V327.748C761.204 335.619 754.823 342 746.952 342H94.048C86.177 342 79.7964 335.619 79.7964 327.748V87.2517Z" fill="#FEECCF"/>
<g clip-path="url(#clip0_1925_340)">
<g clip-path="url(#clip1_1925_340)">
<g opacity="0.4">
<path opacity="0.4" d="M738.533 147.167C656.583 149.369 575.235 158.93 496.107 175.66C473.949 180.35 452.02 185.604 430.319 191.421C425.212 192.787 421.838 196.759 423.336 200.989C424.7 204.855 430.507 207.796 435.637 206.424C511.391 186.168 590.133 172.533 669.856 166.313C692.686 164.531 715.578 163.335 738.533 162.725C743.929 162.579 748.532 159.254 748.532 154.947C748.528 150.845 743.949 147.021 738.533 147.167Z" fill="white"/>
<path opacity="0.4" d="M665.337 231.897C579.889 215.619 489.839 215.123 404.032 230.188C379.965 234.418 356.287 239.89 333.154 246.566C329.404 247.646 326.854 250.468 327.98 253.653C328.974 256.46 333.322 258.765 337.091 257.677C417.792 234.412 504.987 226.097 590.544 233.26C614.415 235.284 638.085 238.542 661.399 243.011C670.659 244.775 674.612 233.664 665.337 231.897Z" fill="white"/>
<path opacity="0.4" d="M660.065 266.971C574.962 259.275 488.768 263.713 405.712 280.068C382.236 284.698 359.085 290.277 336.355 296.781C330.142 298.557 332.836 306.359 339.112 304.561C441.621 275.219 551.584 265.104 660.065 275.037C662.869 275.293 665.222 273.003 665.25 271.004C665.281 268.617 662.829 267.224 660.065 266.971Z" fill="white"/>
<path opacity="0.4" d="M634.407 296.178C585.233 287.641 534.871 283.963 484.513 285.229C434.15 286.488 384.185 292.619 335.768 303.478C308.471 309.631 281.773 317.291 255.877 326.401C250.669 328.226 255.185 334.191 260.362 332.372C305.603 316.556 353.227 305.241 402.107 298.693C450.759 292.153 500.265 290.325 549.495 293.252C577.271 294.908 604.859 298.114 632.045 302.845C637.617 303.812 639.998 297.148 634.407 296.178Z" fill="white"/>
<path opacity="0.4" d="M646.778 307.983C568.259 299.676 487.75 304.777 412.125 323.33C390.711 328.61 369.741 334.922 349.336 342.23C345.336 343.656 344.351 348.155 346.415 350.901C348.816 354.095 353.547 354.606 357.563 353.173C426.49 328.598 502.464 316.21 578.25 316.703C599.722 316.814 621.164 317.984 642.446 320.206C646.802 320.666 651.193 319.388 652.471 315.778C653.515 312.825 651.169 308.445 646.778 307.983Z" fill="white"/>
</g>
<path d="M503.465 232.628C548.183 223.558 594.612 220.712 640.604 224.225C630.892 222.588 621.097 221.359 611.177 220.909C609.503 218.558 607.658 216.125 604.674 214.756C601.691 213.388 597.276 213.54 595.388 215.8C595.632 214.162 595.445 212.502 594.839 210.922C594.233 209.342 593.22 207.875 591.862 206.608C590.505 205.342 588.83 204.304 586.941 203.556C585.051 202.809 582.986 202.368 580.871 202.261C578.756 202.153 576.635 202.381 574.636 202.931C572.638 203.481 570.804 204.341 569.246 205.459C567.688 206.577 566.438 207.93 565.573 209.435C564.708 210.94 564.245 212.566 564.213 214.215C560.67 209.534 555.301 205.477 548.654 203.765C542.007 202.052 533.952 203.184 529.495 207.356C525.401 211.174 524.967 216.569 525.17 221.542C522.523 220.873 518.887 222.089 517.667 224.036C517.197 224.787 516.99 225.648 516.349 226.323C515.77 226.931 514.898 227.327 514.05 227.704C510.359 229.34 507.148 230.992 503.465 232.628Z" fill="white"/>
<path d="M362.714 278.45C396.076 266.575 431.193 257.946 467.27 252.759C459.841 253.367 452.502 253.738 445.057 254.343C442.422 250.085 439.583 245.371 434.183 243.172C429.1 241.101 422.578 241.651 417.933 244.267C413.287 246.882 410.57 251.311 410.417 255.764C409.088 251.557 404.075 248.184 398.57 247.533C393.064 246.882 387.133 249.197 384.701 253.093C382.996 255.824 383 259.003 383.035 262.026C382.144 262.169 381.299 262.448 380.547 262.846C379.796 263.244 379.153 263.754 378.656 264.347C378.163 264.926 377.826 265.577 377.664 266.26C377.502 266.943 377.519 267.644 377.713 268.322C372.286 271.865 368.145 274.907 362.714 278.45Z" fill="white"/>
<path d="M407.088 345.888C421.028 338.823 437.196 333.047 452.414 327.719C467.734 322.356 484.02 318.898 500.227 315.437C495.269 315.437 490.452 315.696 485.615 316.572C482.683 311.976 476.958 308.798 470.51 307.718C467.832 307.271 464.958 307.167 462.424 307.973C460.196 308.682 458.409 310.035 456.837 311.456C453.787 314.211 451.202 317.73 452.012 321.313C451.574 320.909 450.643 320.963 449.963 320.915C449.281 320.887 448.599 320.946 447.941 321.088C446.926 321.235 445.967 321.557 445.134 322.031C444.724 322.272 444.401 322.591 444.195 322.958C443.99 323.324 443.909 323.726 443.961 324.124C442.006 321.633 437.005 320.507 433.298 320.918C429.591 321.328 426.322 323.351 424.723 325.997C423.124 328.643 423.132 331.776 424.469 334.492C418.58 337.485 412.594 342.491 407.088 345.888Z" fill="white"/>
<path d="M725.982 422.157C722.854 422.242 721.043 422.361 717.931 422.361H467.371C469.792 413.93 472.873 404.486 475.285 396.055C471.829 390.37 470.276 373.852 485.061 362.474C485.585 362.063 486.136 361.668 486.707 361.279C486.897 361.135 487.096 360.998 487.305 360.868C487.305 360.765 487.305 360.664 487.336 360.564C487.713 357.077 488.518 353.627 489.741 350.259C487.297 347.194 486.519 343.848 486.707 340.25C487.258 330.721 491.605 321.561 499.145 314.038C499.145 313.883 499.145 313.734 499.145 313.573C499.418 307.256 500.251 300.975 502.5 294.898C502.5 294.898 499.974 276.132 519.61 254.465C538.187 233.978 585.73 202.501 590.798 199.168L591.189 198.903L591.232 198.879C594.321 198.879 596.526 200.123 598.086 202.191L602.997 204.086L607.689 205.89C607.768 206.924 608.366 207.845 609.105 208.724C609.496 209.183 609.887 209.618 610.317 210.05C610.34 210.075 610.356 210.102 610.38 210.126C615.826 215.905 619.435 222.66 621.351 229.674C621.817 231.344 622.11 232.986 623.377 234.397C623.557 234.282 623.854 234.257 624.045 234.145V234.169C625.443 233.321 627.022 232.671 628.71 232.25L628.894 232.201C633.325 234.355 637.664 236.612 641.911 238.975C643.983 243.175 643.009 247.758 642.622 252.242C642.231 256.804 642.677 261.403 643.107 265.974C643.224 267.145 643.447 268.477 644.671 269.158C644.695 269.238 644.725 269.316 644.761 269.393C644.847 269.672 644.941 269.952 645.047 270.223C647.627 277.638 650.462 284.99 653.551 292.28C653.821 292.931 654.098 293.578 654.388 294.229C654.437 294.22 654.486 294.214 654.536 294.211C664.077 292.885 673.305 289.579 682.161 286.489C692.242 292.657 700.058 299.631 708.14 307.375C709.743 307.213 711.659 307.213 712.934 307.983C713.716 308.46 714.162 309.199 714.791 309.792C715.294 310.258 715.917 310.635 716.619 310.901C717.322 311.167 718.089 311.314 718.869 311.335C721.051 311.423 723.213 311.698 725.317 312.153L725.372 322.494L725.63 362.145L725.982 422.157Z" fill="#FEC268"/>
<g style="mix-blend-mode:multiply">
<path d="M708.168 307.371C700.089 299.621 692.265 292.647 682.185 286.485C673.336 289.572 664.105 292.872 654.56 294.205C654.509 294.205 654.458 294.205 654.411 294.223C650.864 286.023 647.655 277.745 644.785 269.389C644.757 269.31 644.726 269.234 644.703 269.155C643.467 268.474 643.24 267.138 643.139 265.968C642.701 261.405 642.259 256.813 642.65 252.235C643.041 247.755 644.007 243.169 641.938 238.971C637.689 236.617 633.346 234.358 628.91 232.195L628.726 232.244C627.729 236.121 626.833 239.978 625.277 243.746C627.623 246.645 627.056 250.416 628.386 253.692C629.238 255.776 630.865 257.646 631.725 259.72C632.715 262.139 632.642 264.746 631.518 267.129C631.737 267.239 631.96 267.336 632.179 267.434L631.744 267.348C632.804 268.157 633.223 269.143 634.036 270.113C634.892 271.069 635.326 272.215 635.271 273.38C635.205 273.988 634.966 274.56 634.931 275.165C634.921 275.886 635.052 276.604 635.322 277.294C637.47 283.833 639.614 290.372 641.754 296.912L643.154 300.035L682.619 292.079L706.596 310.175L708.183 307.371H708.168Z" fill="#C3A178"/>
</g>
<g style="mix-blend-mode:multiply">
<path d="M640.351 257.339C635.823 254.809 631.467 252.22 627.678 249.045C597.879 259.012 567.928 269.584 542.301 285.056C516.674 300.528 481.862 329.629 489.749 350.253C487.301 347.191 486.519 343.845 486.715 340.244C487.26 330.715 491.606 321.555 499.149 314.035C499.149 313.877 499.149 313.731 499.149 313.57C516.901 294.141 553.011 269.739 625.14 243.957C630.556 247.272 635.698 250.663 640.327 254.602C640.312 255.487 640.351 256.463 640.351 257.339Z" fill="#C3A178"/>
</g>
<g style="mix-blend-mode:multiply">
<path d="M588.843 312.179V290.062C588.843 290.062 587.67 278.042 600.964 273.118C614.258 268.194 613.523 281.062 613.523 281.062V303.751L588.843 312.179Z" fill="#C3A178"/>
</g>
<g style="mix-blend-mode:multiply">
<path d="M601.203 307.961V290.062C601.203 290.062 600.155 279.301 611.314 273.973C609.574 272.09 606.481 271.077 600.968 273.118C587.674 278.042 588.847 290.062 588.847 290.062V312.18L601.203 307.961Z" fill="#C3A178"/>
</g>
<g style="mix-blend-mode:multiply">
<path d="M572.213 317.044V293.402C572.213 293.402 572.072 284.545 564.936 287.809C556.545 291.647 556.334 303.418 556.334 303.418V323.644L572.213 317.044Z" fill="#C3A178"/>
</g>
<g style="mix-blend-mode:multiply">
<path d="M565.022 304.668C565.022 304.668 565.206 294.868 571.615 290.239C570.833 288.08 569.058 285.923 564.936 287.806C556.545 291.644 556.334 303.415 556.334 303.415V323.644L565.026 320.033L565.022 304.668Z" fill="#C3A178"/>
</g>
<g style="mix-blend-mode:multiply">
<path d="M544.592 327.205V307.11C544.592 307.11 544.029 299.662 536.545 302.98C529.061 306.298 529.702 314.668 529.702 314.668V335.594L544.592 327.205Z" fill="#C3A178"/>
</g>
<g style="mix-blend-mode:multiply">
<path d="M542.133 328.586V316.983C542.133 316.983 541.789 312.457 544.592 308.74V307.107C544.592 307.107 544.029 299.658 536.545 302.977C529.061 306.295 529.702 314.665 529.702 314.665V335.59L542.133 328.586Z" fill="#C3A178"/>
</g>
<g style="mix-blend-mode:multiply">
<path d="M521.644 339.288V322.198C521.644 322.198 521.804 315.687 516.56 317.064C511.317 318.442 511.411 328.081 511.411 328.081V345.113L521.644 339.288Z" fill="#C3A178"/>
</g>
<g style="mix-blend-mode:multiply">
<path d="M505.788 347.3V335.846C505.788 335.846 505.546 331.399 502.488 331.965C499.43 332.531 499.751 339.225 499.751 339.225V351.747L505.788 347.3Z" fill="#C3A178"/>
</g>
<g style="mix-blend-mode:multiply">
<path d="M663.369 344.359V383.673C658.638 383.935 648.609 384.82 639.999 385.626C631.905 386.374 625.062 387.052 625.062 387.052V351.744C625.062 351.744 624.734 333.212 644.538 331.913C647.17 331.7 649.829 331.832 652.405 332.303C664.054 334.593 663.369 344.359 663.369 344.359Z" fill="#C3A178"/>
</g>
<g style="mix-blend-mode:multiply">
<path d="M692.468 311.338L692.285 317.271L679.143 307.797C642.278 313.302 567.169 330.654 519.958 348.866C466.194 369.609 475.285 396.055 475.285 396.055C471.829 390.373 470.3 373.828 485.065 362.474C485.6 362.066 486.148 361.671 486.711 361.279C486.906 361.136 487.102 360.993 487.309 360.862C500.799 351.491 521.522 342.78 544.592 333.212C588.682 314.911 681.243 300.035 681.243 300.035C681.243 300.035 691.612 310.617 692.468 311.338Z" fill="#C3A178"/>
</g>
<g style="mix-blend-mode:multiply">
<path d="M665.461 317.357C665.031 317.439 618.677 327.038 618.677 327.038V351.412H619.85V332.214L665.454 323.449L665.461 317.357Z" fill="#C3A178"/>
</g>
<g style="mix-blend-mode:multiply">
<path d="M609.77 329.626V334.885L575.216 343.312V353.31H573.953V338.349L609.77 329.626Z" fill="#C3A178"/>
</g>
<g style="mix-blend-mode:multiply">
<path d="M562.981 341.466L536.154 350.159V364.076H537.656V352.771L562.981 345.922V341.466Z" fill="#C3A178"/>
</g>
<g style="mix-blend-mode:multiply">
<path d="M684.038 320.343C687.217 321.766 689.958 323.579 692.617 325.544C693.188 325.291 693.7 324.917 694.271 324.665C690.29 321.176 686.396 317.642 681.997 314.473C679.696 314.865 677.425 315.355 675.194 315.942C675.194 316.301 674.904 316.41 674.904 316.772V322.533C677.802 322.533 681.207 320.82 684.038 320.343Z" fill="#C3A178"/>
</g>
<g style="mix-blend-mode:multiply">
<path d="M691.858 336.886C692.863 338.44 693.868 339.992 694.736 341.594C695.604 343.197 696.351 344.879 697.137 346.531C702.893 358.621 711.292 369.829 719.644 380.966C720.934 376.663 718.991 372.146 716.363 368.244C713.735 364.342 710.381 360.668 708.519 356.492C707.088 353.271 706.592 349.852 705.524 346.546C704.457 343.24 702.689 339.913 699.327 337.726C699.014 337.522 699.002 335.335 698.869 334.9C698.594 333.976 698.201 333.075 697.696 332.212C696.63 330.404 695.126 328.773 693.266 327.409C691.487 326.101 689.285 324.912 686.936 324.316C683.061 323.333 686.228 327.771 686.869 328.878C688.421 331.585 690.142 334.237 691.858 336.886Z" fill="#C3A178"/>
</g>
<g style="mix-blend-mode:multiply">
<path d="M593.03 206.342C506.969 252.083 502.519 294.889 502.519 294.889C502.519 294.889 499.993 276.123 519.63 254.462C538.207 233.971 586.192 202.203 591.259 198.872L593.03 206.342Z" fill="#C3A178"/>
</g>
<g style="mix-blend-mode:multiply">
<path d="M511.634 302.429L511.098 302.171C511.164 302.089 517.933 293.749 535.775 281.011C552.225 269.265 581.738 251.256 628.925 232.15L629.215 232.585C539.055 269.085 511.896 302.101 511.634 302.429Z" fill="#C3A178"/>
</g>
<g style="mix-blend-mode:multiply">
<path d="M545.812 258.51L553.218 253.668V243.068C553.218 243.068 553.022 239.741 549.515 240.979C545.812 242.287 545.812 245.991 545.812 245.991V258.51Z" fill="#C3A178"/>
</g>
<g style="mix-blend-mode:multiply">
<path d="M652.405 332.302C648.495 333.443 644.703 335.04 642.63 337.777C640.699 340.347 640.605 343.48 640.562 346.457C640.377 359.509 640.192 372.561 640.007 385.613C631.913 386.361 625.07 387.04 625.07 387.04V351.743C625.07 351.743 624.741 333.212 644.546 331.913C647.176 331.7 649.832 331.832 652.405 332.302Z" fill="#C3A178"/>
</g>
<g style="mix-blend-mode:multiply">
<path d="M682.228 288.748C686.171 291.404 689.885 294.26 693.344 297.297C697.645 301.072 701.634 305.184 707.03 307.988C706.645 308.677 706.49 309.43 706.58 310.178C698.474 304.226 690.439 298.261 682.619 292.078C682.315 290.984 682.183 289.866 682.228 288.748Z" fill="#ECD2AA"/>
</g>
<g style="mix-blend-mode:multiply">
<path d="M624.061 234.166C623.924 234.44 623.714 234.688 623.444 234.894C623.174 235.1 622.852 235.259 622.497 235.361C621.785 235.562 621.04 235.685 620.284 235.726C618.636 232.991 616.73 230.354 614.583 227.837C614.086 227.174 613.428 226.593 612.647 226.124C610.864 225.188 608.417 225.498 606.466 224.792C606.704 222.094 606.008 219.381 604.87 216.827C604.338 215.646 603.717 214.488 603.048 213.35C602.72 212.79 602.381 212.237 602.032 211.689C601.793 211.309 600.89 210.379 600.937 209.977C601.019 209.168 603.885 209.688 604.726 209.731L609.629 210.001C609.863 210.001 610.094 210.026 610.321 210.05C610.348 210.074 610.368 210.099 610.391 210.123C615.83 215.902 619.439 222.663 621.359 229.671C621.821 231.347 622.219 233.105 623.486 234.516C623.678 234.391 623.866 234.275 624.061 234.166Z" fill="#C3A178"/>
</g>
<g style="mix-blend-mode:multiply">
<path d="M593.21 207.306C590.477 208.45 587.822 209.705 585.257 211.066C582.798 212.376 580.174 213.605 578.051 215.241C578.525 215.054 579.034 214.926 579.56 214.864C579.824 214.835 580.092 214.855 580.344 214.923C580.595 214.991 580.823 215.104 581.007 215.254C581.155 215.391 581.257 215.558 581.398 215.692C581.977 216.16 582.981 215.917 583.744 215.643C583.846 216.278 584.253 216.86 584.883 217.272C585.513 217.684 586.32 217.897 587.142 217.866C588.084 217.802 589.097 217.425 589.91 217.802C590.485 218.07 590.692 218.624 591.185 218.989C592.233 219.795 593.402 219.232 594.614 219.405C596.084 219.618 596.264 220.941 596.123 221.875C596.049 222.346 595.967 222.857 596.272 223.268C596.545 223.552 596.878 223.798 597.257 223.995C598.591 224.871 599.259 226.486 599.795 227.73C600.456 229.251 600.999 230.814 601.578 232.362C602.716 235.403 604.002 238.481 606.466 241.045C602.774 229.81 597.769 218.35 593.21 207.306Z" fill="#FEF1CB"/>
</g>
<g style="mix-blend-mode:multiply">
<path d="M564.827 279.986C553.325 267.318 543.531 253.763 535.599 239.535C529.366 244.766 523.775 249.876 519.63 254.456C499.993 276.117 502.519 294.883 502.519 294.883C500.275 300.966 499.438 307.241 499.164 313.564C499.164 313.719 499.164 313.868 499.164 314.029C491.617 321.55 487.269 330.713 486.722 340.244C486.527 343.845 487.309 347.191 489.757 350.253C488.529 353.621 487.722 357.073 487.348 360.561C487.348 360.661 487.348 360.759 487.317 360.865C487.113 360.999 486.926 361.136 486.719 361.279C486.145 361.664 485.596 362.063 485.072 362.474C470.3 373.828 471.829 390.374 475.285 396.055C472.873 404.486 469.788 413.93 467.375 422.361H717.931C721.059 422.361 722.87 422.242 725.982 422.157L725.665 366.717C684.218 358.173 645.191 342.431 612.565 320.766C594.537 308.768 578.501 295.069 564.827 279.986Z" fill="#FDF1DA"/>
</g>
<g style="mix-blend-mode:multiply">
<path d="M607.384 209.487C603.74 209.159 600.252 208.186 596.804 207.215C595.576 206.875 594.352 206.53 593.132 206.181C592.592 203.775 591.908 201.294 591.22 198.882L591.263 198.857C594.352 198.857 596.557 200.101 598.117 202.17L603.028 204.064C603.073 204.181 603.129 204.295 603.197 204.405C603.461 204.687 603.782 204.933 604.147 205.135C604.328 205.238 604.472 205.377 604.562 205.537C604.653 205.698 604.688 205.874 604.663 206.047C604.584 206.012 604.497 205.992 604.406 205.987C604.316 205.983 604.226 205.994 604.142 206.021C604.058 206.047 603.983 206.089 603.923 206.141C603.863 206.194 603.819 206.256 603.795 206.324C603.76 206.464 603.779 206.608 603.848 206.739C603.918 206.871 604.035 206.983 604.186 207.063C604.493 207.221 604.847 207.317 605.214 207.34C605.576 207.368 605.932 207.426 606.278 207.513C606.071 208.256 606.763 208.937 607.384 209.487Z" fill="#FEE1B4"/>
</g>
<g style="mix-blend-mode:multiply">
<path d="M725.63 362.878C724.097 362.574 722.565 362.27 721.098 361.965C719.785 361.689 718.4 361.388 717.423 360.585C716.919 360.171 716.531 359.633 715.933 359.319C715.241 358.948 714.369 358.939 713.587 358.711C712.849 358.487 712.203 358.111 711.72 357.622C711.238 357.133 710.937 356.55 710.85 355.937C710.365 352.847 709.884 349.73 708.676 346.785C708.019 345.17 707.143 343.625 706.416 342.026C704.392 337.55 703.55 332.803 703.941 328.068C706.752 325.063 710.811 322.578 715.241 321.833C718.639 321.275 722.173 321.501 725.407 322.484L725.63 362.878Z" fill="#C3A178"/>
</g>
</g>
</g>
</g>
<path d="M0 56C0 47.1634 7.16344 40 16 40H749C757.837 40 765 47.1634 765 56V326C765 334.837 757.837 342 749 342H16C7.16344 342 0 334.837 0 326V56Z" fill="#FEECCF"/>
<g clip-path="url(#clip2_1925_340)">
<mask id="mask0_1925_340" style="mask-type:alpha" maskUnits="userSpaceOnUse" x="262" y="40" width="503" height="302">
<rect x="262" y="40" width="503" height="302" fill="#D9D9D9"/>
</mask>
<g mask="url(#mask0_1925_340)">
<path opacity="0.4" d="M846.123 72.935C725.117 43.358 597.594 42.4572 476.08 69.8292C441.997 77.5163 408.465 87.458 375.706 99.5885C370.396 101.55 366.785 106.679 368.38 112.465C369.787 117.566 375.944 121.755 381.282 119.776C495.565 77.5053 619.046 62.3962 740.206 75.4108C774.01 79.089 807.531 85.0079 840.547 93.1282C853.659 96.3335 859.257 76.1458 846.123 72.935Z" fill="white"/>
<path opacity="0.4" d="M838.657 136.665C718.14 122.68 596.078 130.744 478.459 160.461C445.213 168.874 412.428 179.01 380.239 190.829C371.441 194.056 375.256 208.231 384.143 204.965C529.311 151.651 685.034 133.272 838.657 151.321C842.627 151.785 845.961 147.624 845.999 143.993C846.044 139.655 842.572 137.124 838.657 136.665Z" fill="white"/>
<path opacity="0.4" d="M802.321 189.733C732.684 174.222 661.365 167.538 590.051 169.838C518.731 172.127 447.973 183.265 379.409 202.996C340.752 214.177 302.943 228.096 266.272 244.649C258.896 247.964 265.292 258.802 272.623 255.497C336.69 226.76 404.133 206.2 473.354 194.304C542.251 182.419 612.359 179.098 682.075 184.417C721.41 187.426 760.478 193.251 798.977 201.847C806.868 203.604 810.24 191.496 802.321 189.733Z" fill="white"/>
<path opacity="0.4" d="M817.14 245.063C673.566 225.551 526.353 237.533 388.07 281.115C348.915 293.518 310.571 308.346 273.26 325.512C265.946 328.863 264.144 339.43 267.919 345.882C272.309 353.383 280.96 354.584 288.303 351.219C414.338 293.49 553.258 264.39 691.834 265.547C731.096 265.809 770.303 268.558 809.218 273.778C817.182 274.857 825.212 271.856 827.55 263.375C829.459 256.438 825.169 246.149 817.14 245.063Z" fill="white"/>
</g>
<path d="M556.89 74.2636C620.217 57.7825 685.966 52.613 751.098 58.9943C737.343 56.0212 723.473 53.7885 709.425 52.9706C707.055 48.6988 704.441 44.2777 700.216 41.7908C695.991 39.304 689.74 39.5803 687.065 43.6864C687.41 40.7103 687.146 37.6953 686.288 34.8244C685.429 31.9535 683.995 29.2867 682.073 26.986C680.15 24.6852 677.779 22.7985 675.103 21.4405C672.427 20.0825 669.503 19.2815 666.507 19.0861C663.512 18.8908 660.508 19.3051 657.678 20.3041C654.848 21.303 652.251 22.8657 650.045 24.8972C647.838 26.9287 646.069 29.3865 644.843 32.1215C643.618 34.8565 642.963 37.8116 642.917 40.8072C637.9 32.3021 630.297 24.93 620.884 21.8186C611.471 18.7073 600.064 20.7631 593.752 28.3452C587.954 35.2808 587.339 45.0845 587.627 54.1201C583.879 52.9043 578.729 55.1149 577.001 58.6517C576.337 60.0167 576.043 61.5807 575.135 62.8075C574.316 63.9128 573.081 64.6312 571.879 65.3165C566.652 68.2897 562.106 71.2905 556.89 74.2636Z" fill="white"/>
<path d="M357.568 157.522C404.812 135.945 454.543 120.266 505.634 110.841C495.113 111.946 484.719 112.62 474.176 113.72C470.444 105.983 466.424 97.4171 458.777 93.4215C451.579 89.6581 442.343 90.6584 435.765 95.411C429.186 100.164 425.338 108.21 425.122 116.301C423.239 108.658 416.141 102.529 408.344 101.346C400.548 100.164 392.148 104.369 388.704 111.448C386.289 116.411 386.295 122.186 386.345 127.679C385.083 127.939 383.886 128.445 382.822 129.169C381.757 129.893 380.847 130.82 380.143 131.896C379.446 132.949 378.968 134.131 378.739 135.372C378.51 136.613 378.533 137.887 378.809 139.119C371.123 145.557 365.259 151.083 357.568 157.522Z" fill="white"/>
<path d="M319 334C344.443 317.49 373.954 303.993 401.73 291.541C429.693 279.011 459.418 270.93 489 262.842C479.95 262.842 471.158 263.446 462.33 265.493C456.977 254.754 446.529 247.327 434.76 244.804C429.871 243.759 424.626 243.517 420.001 245.401C415.933 247.057 412.671 250.219 409.802 253.538C404.236 259.978 399.518 268.201 400.995 276.573C400.196 275.628 398.497 275.756 397.256 275.642C396.012 275.578 394.766 275.715 393.566 276.047C391.714 276.391 389.963 277.144 388.442 278.251C387.693 278.814 387.103 279.56 386.729 280.416C386.354 281.273 386.206 282.211 386.301 283.14C382.732 277.319 373.604 274.69 366.838 275.649C360.073 276.609 354.106 281.335 351.187 287.518C348.268 293.702 348.283 301.022 350.723 307.369C339.975 314.363 329.049 326.061 319 334Z" fill="white"/>
<path d="M822.228 418.635C817.798 418.79 815.234 419.005 810.827 419.005H456C459.428 403.686 463.791 386.527 467.207 371.208C462.312 360.879 460.114 330.866 481.051 310.192C481.792 309.446 482.573 308.727 483.382 308.02C483.651 307.758 483.934 307.51 484.229 307.274C484.229 307.086 484.229 306.904 484.273 306.721C484.807 300.386 485.947 294.116 487.679 287.998C484.218 282.427 483.116 276.348 483.382 269.811C484.163 252.497 490.318 235.853 500.996 222.185C500.996 221.903 500.996 221.632 500.996 221.339C501.383 209.861 502.563 198.449 505.747 187.407C505.747 187.407 502.17 153.31 529.978 113.94C556.285 76.7147 623.612 19.5226 630.789 13.4657L631.342 12.9849L631.403 12.9407C635.778 12.9407 638.901 15.2009 641.11 18.9589L648.065 22.4018L654.71 25.6789C654.82 27.5579 655.668 29.2323 656.714 30.8295C657.268 31.6639 657.822 32.4542 658.431 33.2389C658.464 33.2832 658.486 33.3329 658.519 33.3771C666.233 43.8772 671.343 56.1512 674.057 68.8949C674.716 71.9289 675.131 74.9131 676.925 77.4773C677.18 77.2673 677.601 77.2231 677.872 77.0186V77.0629C679.851 75.5209 682.087 74.3403 684.478 73.5757L684.738 73.4873C691.014 77.4 697.158 81.5023 703.172 85.7945C706.106 93.4264 704.728 101.755 704.179 109.9C703.626 118.19 704.257 126.546 704.866 134.852C705.032 136.979 705.348 139.4 707.081 140.638C707.114 140.782 707.157 140.924 707.208 141.063C707.33 141.572 707.463 142.08 707.612 142.572C711.267 156.045 715.282 169.404 719.656 182.649C720.038 183.832 720.431 185.009 720.841 186.192C720.91 186.174 720.98 186.163 721.051 186.158C734.562 183.749 747.63 177.742 760.172 172.127C774.447 183.334 785.516 196.006 796.961 210.076C799.232 209.784 801.945 209.784 803.75 211.182C804.858 212.049 805.489 213.392 806.38 214.47C807.092 215.315 807.974 216.001 808.969 216.484C809.964 216.967 811.05 217.235 812.156 217.272C815.245 217.433 818.306 217.932 821.287 218.758L821.364 237.548L821.73 309.595L822.228 418.635Z" fill="#FEC268"/>
<g style="mix-blend-mode:multiply">
<path d="M797 210.072C785.56 195.99 774.48 183.318 760.205 172.122C747.674 177.731 734.601 183.727 721.085 186.148C721.013 186.148 720.941 186.148 720.874 186.181C715.85 171.282 711.306 156.241 707.241 141.058C707.203 140.915 707.158 140.777 707.125 140.633C705.375 139.395 705.054 136.969 704.91 134.841C704.29 126.552 703.664 118.207 704.218 109.89C704.772 101.75 706.14 93.4159 703.21 85.7895C697.193 81.5121 691.043 77.4079 684.76 73.4768L684.5 73.5652C683.088 80.6113 681.82 87.6187 679.616 94.4659C682.938 99.7325 682.136 106.585 684.018 112.537C685.225 116.323 687.529 119.721 688.747 123.49C690.15 127.886 690.046 132.622 688.454 136.952C688.764 137.151 689.079 137.328 689.389 137.505L688.775 137.35C690.275 138.82 690.868 140.611 692.02 142.374C693.232 144.111 693.846 146.194 693.769 148.309C693.675 149.414 693.337 150.453 693.288 151.553C693.272 152.863 693.459 154.168 693.841 155.421C696.883 167.303 699.919 179.185 702.95 191.066L704.932 196.742L760.82 182.285L794.774 215.167L797.022 210.072H797Z" fill="#C3A178"/>
</g>
<g style="mix-blend-mode:multiply">
<path d="M700.962 119.163C694.55 114.566 688.382 109.863 683.016 104.093C640.817 122.203 598.401 141.413 562.11 169.525C525.819 197.638 476.521 250.514 487.69 287.988C484.223 282.423 483.116 276.344 483.393 269.801C484.165 252.487 490.319 235.844 501.001 222.18C501.001 221.893 501.001 221.627 501.001 221.335C526.14 186.032 577.277 141.694 679.422 94.8475C687.091 100.871 694.373 107.033 700.929 114.19C700.907 115.798 700.962 117.572 700.962 119.163Z" fill="#C3A178"/>
</g>
<g style="mix-blend-mode:multiply">
<path d="M628.02 218.808V178.621C628.02 178.621 626.359 156.781 645.185 147.834C664.012 138.886 662.971 162.268 662.971 162.268V203.495L628.02 218.808Z" fill="#C3A178"/>
</g>
<g style="mix-blend-mode:multiply">
<path d="M645.523 211.144V178.621C645.523 178.621 644.039 159.069 659.843 149.387C657.379 145.966 652.999 144.126 645.191 147.834C626.364 156.781 628.026 178.621 628.026 178.621V218.809L645.523 211.144Z" fill="#C3A178"/>
</g>
<g style="mix-blend-mode:multiply">
<path d="M604.47 227.646V184.689C604.47 184.689 604.271 168.597 594.165 174.526C582.283 181.501 581.984 202.888 581.984 202.888V239.638L604.47 227.646Z" fill="#C3A178"/>
</g>
<g style="mix-blend-mode:multiply">
<path d="M594.287 205.158C594.287 205.158 594.548 187.352 603.623 178.941C602.516 175.018 600.002 171.099 594.165 174.52C582.283 181.495 581.984 202.881 581.984 202.881V239.637L594.293 233.077L594.287 205.158Z" fill="#C3A178"/>
</g>
<g style="mix-blend-mode:multiply">
<path d="M565.355 246.109V209.597C565.355 209.597 564.558 196.063 553.959 202.092C543.361 208.121 544.269 223.33 544.269 223.33V261.351L565.355 246.109Z" fill="#C3A178"/>
</g>
<g style="mix-blend-mode:multiply">
<path d="M561.872 248.618V227.535C561.872 227.535 561.385 219.312 565.355 212.558V209.591C565.355 209.591 564.558 196.057 553.959 202.086C543.361 208.115 544.269 223.324 544.269 223.324V261.345L561.872 248.618Z" fill="#C3A178"/>
</g>
<g style="mix-blend-mode:multiply">
<path d="M532.857 268.064V237.012C532.857 237.012 533.084 225.18 525.659 227.683C518.233 230.187 518.366 247.7 518.366 247.7V278.647L532.857 268.064Z" fill="#C3A178"/>
</g>
<g style="mix-blend-mode:multiply">
<path d="M510.403 282.621V261.809C510.403 261.809 510.06 253.73 505.73 254.758C501.4 255.786 501.854 267.949 501.854 267.949V290.701L510.403 282.621Z" fill="#C3A178"/>
</g>
<g style="mix-blend-mode:multiply">
<path d="M733.56 277.277V348.711C726.86 349.186 712.657 350.794 700.464 352.259C689.002 353.618 679.312 354.851 679.312 354.851V290.695C679.312 290.695 678.846 257.023 706.893 254.664C710.62 254.276 714.386 254.515 718.033 255.371C734.529 259.532 733.56 277.277 733.56 277.277Z" fill="#C3A178"/>
</g>
<g style="mix-blend-mode:multiply">
<path d="M651.05 295.93V357.825L628.961 362.682L610.688 366.7V304.678C610.688 304.678 611.375 279.096 631.437 276.372C636.625 275.664 640.435 276.632 643.242 278.444C651.299 283.667 651.05 295.93 651.05 295.93Z" fill="#C3A178"/>
</g>
<g style="mix-blend-mode:multiply">
<path d="M586.314 316.857V368.733L580.106 370.612L557.813 377.376V329.374C557.813 329.374 555.992 297.322 572.637 294.796C577.858 294.011 581.153 295.901 583.196 298.852C587.703 305.302 586.314 316.857 586.314 316.857Z" fill="#C3A178"/>
</g>
<g style="mix-blend-mode:multiply">
<path d="M543.992 381.471V333.033C543.992 333.033 546.501 314.382 535.332 316.2C524.164 318.018 524.618 339.631 524.618 339.631V389.114L543.992 381.471Z" fill="#C3A178"/>
</g>
<g style="mix-blend-mode:multiply">
<path d="M540.914 382.682V338.709C540.914 338.709 540.731 329.668 543.616 322.787C542.68 318.797 540.438 315.349 535.31 316.156C524.141 317.974 524.595 339.587 524.595 339.587V389.07L540.914 382.682Z" fill="#C3A178"/>
</g>
<g style="mix-blend-mode:multiply">
<path d="M507.214 393.071V350.756C507.214 350.756 507.413 331.646 501.843 333.011C496.272 334.376 496.499 352.574 496.499 352.574V397.166L507.214 393.071Z" fill="#C3A178"/>
</g>
<g style="mix-blend-mode:multiply">
<path d="M505.957 393.552V353.137C505.949 349.565 506.215 345.998 506.754 342.466C506.201 337.492 504.85 332.276 501.843 333.011C496.272 334.376 496.499 352.574 496.499 352.574V397.166L505.957 393.552Z" fill="#C3A178"/>
</g>
<g style="mix-blend-mode:multiply">
<path d="M774.768 217.278L774.508 228.06L755.897 210.845C703.692 220.848 597.327 252.376 530.47 285.467C454.333 323.157 467.207 371.209 467.207 371.209C462.312 360.885 460.147 330.822 481.056 310.192C481.815 309.452 482.59 308.733 483.387 308.02C483.664 307.761 483.941 307.501 484.234 307.263C503.338 290.237 532.685 274.409 565.355 257.023C627.793 223.771 758.871 196.742 758.871 196.742C758.871 196.742 773.556 215.968 774.768 217.278Z" fill="#C3A178"/>
</g>
<g style="mix-blend-mode:multiply">
<path d="M736.522 228.214C735.913 228.364 670.269 245.805 670.269 245.805V290.093H671.93V255.211L736.511 239.284L736.522 228.214Z" fill="#C3A178"/>
</g>
<g style="mix-blend-mode:multiply">
<path d="M657.655 250.508V260.063L608.723 275.377V293.542H606.934V266.358L657.655 250.508Z" fill="#C3A178"/>
</g>
<g style="mix-blend-mode:multiply">
<path d="M591.397 272.021L553.406 287.815V313.104H555.532V292.563L591.397 280.117V272.021Z" fill="#C3A178"/>
</g>
<g style="mix-blend-mode:multiply">
<path d="M513.366 310.601V316.918L495.929 329.087V323.284L513.366 310.601Z" fill="#C3A178"/>
</g>
<g style="mix-blend-mode:multiply">
<path d="M762.83 233.641C767.332 236.227 771.213 239.521 774.978 243.091C775.787 242.632 776.512 241.952 777.321 241.494C771.684 235.155 766.169 228.733 759.939 222.975C756.681 223.687 753.464 224.578 750.304 225.644C750.304 226.296 749.895 226.495 749.895 227.153V237.62C753.998 237.62 758.821 234.508 762.83 233.641Z" fill="#C3A178"/>
</g>
<g style="mix-blend-mode:multiply">
<path d="M773.904 263.699C775.327 266.523 776.75 269.341 777.98 272.254C779.209 275.166 780.267 278.222 781.38 281.223C789.53 303.19 801.424 323.555 813.252 343.792C815.079 335.973 812.327 327.766 808.606 320.676C804.885 313.585 800.134 306.91 797.498 299.322C795.472 293.47 794.769 287.258 793.257 281.251C791.745 275.244 789.242 269.198 784.48 265.224C784.037 264.854 784.021 260.881 783.833 260.09C783.443 258.411 782.887 256.774 782.171 255.205C780.662 251.921 778.532 248.958 775.898 246.479C773.378 244.103 770.261 241.942 766.933 240.859C761.445 239.074 765.931 247.137 766.839 249.148C769.037 254.067 771.473 258.886 773.904 263.699Z" fill="#C3A178"/>
</g>
<g style="mix-blend-mode:multiply">
<path d="M633.95 26.5028C512.076 109.613 505.774 187.391 505.774 187.391C505.774 187.391 502.197 153.294 530.005 113.935C556.313 76.7041 624.266 18.9814 631.442 12.9301L633.95 26.5028Z" fill="#C3A178"/>
</g>
<g style="mix-blend-mode:multiply">
<path d="M518.682 201.091L517.923 200.621C518.017 200.472 527.602 185.319 552.869 162.174C576.164 140.832 617.959 108.11 684.782 73.3936L685.192 74.1838C557.514 140.506 519.053 200.494 518.682 201.091Z" fill="#C3A178"/>
</g>
<g style="mix-blend-mode:multiply">
<path d="M567.083 121.291L577.57 112.493V93.2336C577.57 93.2336 577.293 87.1878 572.327 89.437C567.083 91.8134 567.083 98.5444 567.083 98.5444V121.291Z" fill="#C3A178"/>
</g>
<g style="mix-blend-mode:multiply">
<path d="M718.034 255.371C712.496 257.443 707.125 260.344 704.19 265.318C701.455 269.988 701.322 275.68 701.261 281.09C700.999 304.806 700.737 328.521 700.475 352.236C689.013 353.596 679.323 354.828 679.323 354.828V290.695C679.323 290.695 678.858 257.023 706.904 254.663C710.627 254.277 714.389 254.516 718.034 255.371Z" fill="#C3A178"/>
</g>
<g style="mix-blend-mode:multiply">
<path d="M643.247 278.444C641.097 279.21 639.21 280.574 637.81 282.373C635.628 285.137 634.543 288.613 633.718 292.05C631.47 301.533 630.994 311.331 630.567 321.074C629.958 334.934 629.423 348.798 628.961 362.666L610.688 366.683V304.678C610.688 304.678 611.375 279.096 631.437 276.372C636.63 275.664 640.44 276.632 643.247 278.444Z" fill="#C3A178"/>
</g>
<g style="mix-blend-mode:multiply">
<path d="M578.091 310.021C577.061 315.31 577.376 320.753 577.681 326.114C578.489 340.151 579.298 354.182 580.106 368.208C580.173 369.008 580.173 369.812 580.106 370.612L557.813 377.376V329.374C557.813 329.374 555.992 297.322 572.637 294.796C577.858 294.011 581.153 295.901 583.196 298.852C582.476 299.958 581.59 300.98 580.981 302.013C579.59 304.509 578.614 307.213 578.091 310.021Z" fill="#C3A178"/>
</g>
<g style="mix-blend-mode:multiply">
<path d="M760.266 176.233C765.851 181.06 771.109 186.249 776.008 191.768C782.099 198.626 787.747 206.098 795.389 211.193C794.843 212.444 794.624 213.813 794.752 215.172C783.273 204.357 771.894 193.52 760.82 182.285C760.389 180.298 760.203 178.265 760.266 176.233Z" fill="#ECD2AA"/>
</g>
<g style="mix-blend-mode:multiply">
<path d="M677.894 77.058C677.7 77.5558 677.402 78.0069 677.02 78.3813C676.638 78.7557 676.181 79.0449 675.679 79.2299C674.67 79.5947 673.615 79.8178 672.545 79.893C670.211 74.9229 667.513 70.1314 664.472 65.5577C663.768 64.354 662.837 63.2975 661.731 62.4464C659.206 60.7442 655.739 61.3079 652.976 60.0258C653.314 55.1239 652.329 50.1945 650.717 45.5523C649.964 43.4081 649.084 41.3026 648.137 39.2357C647.672 38.2189 647.192 37.2131 646.697 36.2183C646.359 35.5275 645.08 33.8365 645.147 33.107C645.263 31.637 649.322 32.582 650.512 32.6594L657.456 33.1512C657.788 33.1512 658.115 33.1954 658.436 33.2396C658.475 33.2838 658.503 33.3281 658.536 33.3723C666.238 43.8723 671.349 56.1574 674.068 68.8901C674.721 71.9351 675.286 75.1293 677.08 77.6935C677.351 77.467 677.617 77.257 677.894 77.058Z" fill="#C3A178"/>
</g>
<g style="mix-blend-mode:multiply">
<path d="M634.205 28.2549C630.334 30.3337 626.574 32.6137 622.942 35.0854C619.459 37.4673 615.744 39.6999 612.737 42.6731C613.408 42.3321 614.13 42.1008 614.875 41.9879C615.248 41.9351 615.628 41.9717 615.985 42.0947C616.341 42.2177 616.663 42.4235 616.923 42.6952C617.134 42.9439 617.278 43.2479 617.477 43.491C618.297 44.3421 619.72 43.9 620.799 43.4026C620.945 44.5569 621.521 45.6141 622.413 46.363C623.305 47.1119 624.447 47.4973 625.611 47.4424C626.946 47.3263 628.38 46.641 629.532 47.3263C630.346 47.8126 630.639 48.8184 631.337 49.4816C632.821 50.9461 634.476 49.9237 636.193 50.2387C638.275 50.6255 638.53 53.0295 638.33 54.7261C638.225 55.5827 638.109 56.5111 638.541 57.2571C638.927 57.7734 639.399 58.2201 639.936 58.5779C641.824 60.1695 642.771 63.104 643.53 65.3643C644.466 68.1275 645.235 70.968 646.055 73.7809C647.666 79.3073 649.488 84.8999 652.976 89.5586C647.749 69.1443 640.662 48.321 634.205 28.2549Z" fill="#FEF1CB"/>
</g>
<g style="mix-blend-mode:multiply">
<path d="M544.23 291.607L519.291 307.645V313.105V335.436L520.52 334.679L520.808 312.253L544.23 299.123V291.607Z" fill="#C3A178"/>
</g>
<g style="mix-blend-mode:multiply">
<path d="M654.278 32.2169C649.117 31.6201 644.178 29.8516 639.294 28.0887C637.555 27.4698 635.822 26.8435 634.094 26.2098C633.33 21.8384 632.361 17.3289 631.387 12.9466L631.448 12.9023C635.822 12.9023 638.945 15.1626 641.154 18.9205L648.109 22.3634C648.172 22.5758 648.251 22.7828 648.347 22.9824C648.721 23.4939 649.176 23.9417 649.693 24.3087C649.95 24.4964 650.153 24.7486 650.281 25.0397C650.41 25.3308 650.459 25.6505 650.424 25.9666C650.313 25.903 650.188 25.8656 650.06 25.8572C649.933 25.8488 649.804 25.8696 649.686 25.9181C649.567 25.9666 649.461 26.0415 649.376 26.1371C649.291 26.2326 649.229 26.3463 649.194 26.4695C649.145 26.7229 649.171 26.9851 649.27 27.2237C649.368 27.4624 649.535 27.667 649.748 27.8124C650.184 28.0997 650.684 28.2726 651.205 28.3153C651.716 28.3663 652.221 28.4719 652.711 28.6303C652.417 29.9787 653.397 31.2166 654.278 32.2169Z" fill="#FEE1B4"/>
</g>
<g style="mix-blend-mode:multiply">
<path d="M594.01 160.312C577.723 137.294 563.853 112.664 552.619 86.8116C543.793 96.317 535.875 105.601 530.005 113.924C502.197 153.283 505.774 187.38 505.774 187.38C502.596 198.433 501.411 209.834 501.023 221.323C501.023 221.605 501.023 221.876 501.023 222.168C490.335 235.834 484.177 252.482 483.404 269.8C483.127 276.343 484.234 282.422 487.701 287.987C485.961 294.106 484.819 300.378 484.29 306.716C484.29 306.898 484.29 307.075 484.245 307.269C483.958 307.512 483.692 307.76 483.398 308.02C482.586 308.72 481.809 309.444 481.067 310.192C460.147 330.822 462.312 360.885 467.207 371.208C463.791 386.527 459.422 403.687 456.005 419.006H810.827C815.256 419.006 817.82 418.79 822.228 418.636L821.779 317.901C763.085 302.378 707.817 273.773 661.615 234.409C636.084 212.608 613.374 187.718 594.01 160.312Z" fill="#FDF1DA"/>
</g>
</g>
<defs>
<filter id="filter0_f_1925_340" x="44.7964" y="0" width="751.407" height="377" filterUnits="userSpaceOnUse" color-interpolation-filters="sRGB">
<feFlood flood-opacity="0" result="BackgroundImageFix"/>
<feBlend mode="normal" in="SourceGraphic" in2="BackgroundImageFix" result="shape"/>
<feGaussianBlur stdDeviation="17.5" result="effect1_foregroundBlur_1925_340"/>
</filter>
<clipPath id="clip0_1925_340">
<rect x="309" y="35" width="452" height="307" rx="14.2517" fill="white"/>
</clipPath>
<clipPath id="clip1_1925_340">
<rect width="471" height="306" fill="white" transform="translate(290.286 116.358)"/>
</clipPath>
<clipPath id="clip2_1925_340">
<rect x="263" y="13" width="502" height="329" rx="16" fill="white"/>
</clipPath>
</defs>
</svg>
