<svg width="800" height="367" viewBox="0 0 800 367" fill="none" xmlns="http://www.w3.org/2000/svg">
<path d="M0 46C0 37.1634 7.16344 30 16 30H749C757.837 30 765 37.1634 765 46V316C765 324.837 757.837 332 749 332H16C7.16344 332 0 324.837 0 316V46Z" fill="#CFEDFE"/>
<g opacity="0.65" filter="url(#filter0_f_1925_66)">
<g clip-path="url(#clip0_1925_66)">
<g clip-path="url(#clip1_1925_66)">
<path fill-rule="evenodd" clip-rule="evenodd" d="M799.983 127.407C791.201 113.018 791.102 98.6946 817.414 88.7067C835.309 81.9223 888.131 77.4171 877.608 107.839C871.692 124.943 884.475 134.921 897.052 140.254C915.213 147.95 937.616 176.101 894.249 167.632C869.955 162.907 813.191 149.039 799.983 127.407ZM363.815 342.284C349.128 310.915 376.554 262.852 415.801 243.978C491.729 207.46 497.389 182.594 491.02 163.753C475.128 116.731 463.136 87.3442 505.755 86.4883C596.011 84.6751 528.122 50.4189 588.019 21.9493C645.619 -5.42884 762.329 42.505 762.329 95.7747C762.329 171.335 808.921 164.616 880.636 213.444C964.28 270.401 796.291 299.911 895.682 342.284H363.815Z" fill="#9ED8F5"/>
<path fill-rule="evenodd" clip-rule="evenodd" d="M728.529 188.593C734.648 189.716 740.181 192.948 744.164 197.728C748.148 202.507 750.331 208.531 750.334 214.753V262.196H772.133V342.284H631.722V262.196H653.522V214.753C653.525 208.532 655.707 202.508 659.69 197.729C663.672 192.95 669.203 189.717 675.322 188.593V141.926C675.322 134.869 678.125 128.101 683.115 123.111C688.104 118.121 694.872 115.318 701.928 115.318C708.984 115.318 715.752 118.121 720.741 123.111C725.731 128.101 728.534 134.869 728.534 141.926L728.529 188.593Z" fill="#FBF8F3"/>
<path fill-rule="evenodd" clip-rule="evenodd" d="M658.321 274.271C662.827 274.27 667.15 276.059 670.337 279.246C673.524 282.432 675.316 286.754 675.317 291.261V342.284H641.327V291.261C641.327 289.029 641.767 286.819 642.621 284.758C643.476 282.696 644.727 280.823 646.305 279.246C647.883 277.668 649.757 276.417 651.818 275.563C653.88 274.709 656.089 274.27 658.321 274.271Z" fill="#B4B5B5"/>
<path fill-rule="evenodd" clip-rule="evenodd" d="M661.466 274.562C665.359 275.294 668.873 277.364 671.402 280.413C673.932 283.462 675.316 287.299 675.317 291.26V342.284H647.612V291.26C647.613 287.299 648.998 283.462 651.528 280.413C654.058 277.364 657.573 275.294 661.466 274.562Z" fill="#01283D"/>
<path fill-rule="evenodd" clip-rule="evenodd" d="M701.923 274.271C706.429 274.27 710.752 276.059 713.939 279.246C717.126 282.432 718.918 286.754 718.919 291.261V342.284H684.927V291.261C684.928 286.754 686.719 282.432 689.907 279.246C693.094 276.059 697.416 274.27 701.923 274.271Z" fill="#B4B5B5"/>
<path fill-rule="evenodd" clip-rule="evenodd" d="M705.065 274.562C708.958 275.294 712.473 277.364 715.003 280.413C717.533 283.462 718.918 287.299 718.919 291.26V342.284H691.214V291.26C691.215 287.299 692.6 283.462 695.129 280.413C697.658 277.364 701.173 275.295 705.065 274.562Z" fill="#01283D"/>
<path fill-rule="evenodd" clip-rule="evenodd" d="M745.522 274.271C747.754 274.27 749.963 274.709 752.025 275.563C754.086 276.417 755.96 277.668 757.538 279.246C759.116 280.823 760.367 282.696 761.222 284.758C762.076 286.819 762.516 289.029 762.516 291.261V342.284H728.529V291.261C728.53 286.754 730.321 282.432 733.509 279.246C736.696 276.059 741.018 274.27 745.525 274.271" fill="#B4B5B5"/>
<path fill-rule="evenodd" clip-rule="evenodd" d="M748.665 274.562C752.558 275.294 756.073 277.364 758.603 280.413C761.132 283.462 762.517 287.299 762.519 291.26V342.284H734.814V291.26C734.815 287.299 736.2 283.462 738.729 280.413C741.258 277.364 744.772 275.295 748.665 274.562Z" fill="#01283D"/>
<path fill-rule="evenodd" clip-rule="evenodd" d="M680.123 197.766C684.629 197.765 688.951 199.554 692.137 202.74C695.324 205.926 697.115 210.247 697.117 214.753V262.196H663.127V214.753C663.127 212.522 663.568 210.312 664.422 208.251C665.277 206.189 666.529 204.317 668.107 202.739C669.685 201.162 671.559 199.911 673.62 199.057C675.682 198.204 677.892 197.765 680.123 197.766Z" fill="#B4B5B5"/>
<path fill-rule="evenodd" clip-rule="evenodd" d="M683.266 198.057C687.158 198.789 690.673 200.858 693.202 203.907C695.731 206.955 697.116 210.792 697.117 214.753V262.196H669.412V214.753C669.413 210.792 670.799 206.955 673.328 203.907C675.858 200.858 679.373 198.789 683.266 198.057Z" fill="#00507A"/>
<path fill-rule="evenodd" clip-rule="evenodd" d="M723.723 197.766C728.228 197.766 732.548 199.556 735.734 202.742C738.919 205.927 740.71 210.248 740.711 214.753V262.196H706.729V214.753C706.73 210.247 708.521 205.926 711.708 202.74C714.895 199.554 719.217 197.765 723.723 197.766Z" fill="#B4B5B5"/>
<path fill-rule="evenodd" clip-rule="evenodd" d="M726.865 198.057C730.757 198.791 734.27 200.86 736.798 203.909C739.326 206.957 740.71 210.793 740.711 214.753V262.196H713.014V214.753C713.015 210.792 714.4 206.956 716.929 203.907C719.458 200.859 722.972 198.79 726.865 198.057Z" fill="#00507A"/>
<path fill-rule="evenodd" clip-rule="evenodd" d="M701.923 124.938C704.154 124.937 706.364 125.376 708.425 126.23C710.487 127.083 712.361 128.334 713.939 129.912C715.517 131.489 716.769 133.362 717.624 135.423C718.478 137.485 718.918 139.694 718.919 141.926V185.519H684.927V141.926C684.927 139.694 685.367 137.485 686.222 135.423C687.076 133.362 688.329 131.489 689.907 129.912C691.485 128.334 693.358 127.083 695.42 126.23C697.482 125.376 699.691 124.937 701.923 124.938Z" fill="#B4B5B5"/>
<path fill-rule="evenodd" clip-rule="evenodd" d="M705.065 125.229C708.958 125.962 712.473 128.031 715.002 131.079C717.532 134.128 718.917 137.964 718.919 141.926V185.519H691.214V141.926C691.216 137.965 692.601 134.129 695.13 131.08C697.659 128.032 701.173 125.962 705.065 125.229Z" fill="#00507A"/>
<path d="M718.916 142.587H688.213V145.377H718.916V142.587Z" fill="#956C26"/>
<path fill-rule="evenodd" clip-rule="evenodd" d="M703.566 165.371H695.995V164.138C697.474 163.568 698.426 160.301 698.426 158.146V154.043C698.426 152.68 698.967 151.372 699.931 150.408C700.895 149.444 702.203 148.903 703.566 148.903C704.93 148.903 706.237 149.444 707.201 150.408C708.165 151.372 708.707 152.68 708.707 154.043V158.146C708.707 160.301 709.659 163.568 711.137 164.138V165.371H703.566Z" fill="#D9B500"/>
<path fill-rule="evenodd" clip-rule="evenodd" d="M703.566 148.915C704.241 148.915 704.91 149.047 705.533 149.306C706.157 149.564 706.723 149.942 707.201 150.419C707.678 150.896 708.057 151.463 708.315 152.087C708.574 152.71 708.707 153.378 708.707 154.053V158.146C708.707 160.301 709.659 163.568 711.137 164.138V165.371H703.566V148.915Z" fill="#C5A405"/>
<path fill-rule="evenodd" clip-rule="evenodd" d="M705.949 165.371C706.068 165.745 706.096 166.143 706.032 166.53C705.969 166.918 705.815 167.285 705.583 167.602C705.35 167.919 705.047 168.177 704.697 168.354C704.346 168.532 703.959 168.625 703.566 168.625C703.173 168.625 702.786 168.532 702.436 168.354C702.085 168.177 701.782 167.919 701.55 167.602C701.318 167.285 701.164 166.918 701.1 166.53C701.036 166.143 701.065 165.745 701.183 165.371H705.949Z" fill="#B2871C"/>
<path d="M704.708 145.377H702.427V149.161H704.708V145.377Z" fill="#B2871C"/>
<path d="M697.117 217.007H666.414V219.8H697.117V217.007Z" fill="#956C26"/>
<path fill-rule="evenodd" clip-rule="evenodd" d="M681.766 239.794H674.195V238.561C675.674 237.988 676.624 234.724 676.624 232.569V228.476C676.653 227.132 677.208 225.854 678.169 224.914C679.13 223.974 680.421 223.447 681.765 223.447C683.109 223.447 684.4 223.974 685.361 224.914C686.322 225.854 686.877 227.132 686.907 228.476V232.569C686.907 234.724 687.859 237.988 689.338 238.561V239.794H681.766Z" fill="#D9B500"/>
<path fill-rule="evenodd" clip-rule="evenodd" d="M681.766 223.338C682.441 223.338 683.11 223.471 683.733 223.729C684.357 223.987 684.924 224.365 685.401 224.842C685.878 225.319 686.257 225.886 686.515 226.51C686.774 227.133 686.907 227.802 686.907 228.477V232.569C686.907 234.724 687.859 237.988 689.338 238.561V239.794H681.766V223.338Z" fill="#C5A405"/>
<path fill-rule="evenodd" clip-rule="evenodd" d="M684.149 239.794C684.268 240.168 684.296 240.566 684.233 240.953C684.169 241.341 684.015 241.708 683.783 242.025C683.551 242.342 683.247 242.6 682.897 242.777C682.546 242.955 682.159 243.048 681.766 243.048C681.374 243.048 680.986 242.955 680.636 242.777C680.286 242.6 679.982 242.342 679.75 242.025C679.518 241.708 679.364 241.341 679.3 240.953C679.237 240.566 679.265 240.168 679.384 239.794H684.149Z" fill="#B2871C"/>
<path d="M682.906 219.801H680.624V223.584H682.906V219.801Z" fill="#B2871C"/>
<path d="M740.719 217.007H710.016V219.8H740.719V217.007Z" fill="#956C26"/>
<path fill-rule="evenodd" clip-rule="evenodd" d="M725.366 239.794H717.795V238.561C719.273 237.988 720.226 234.724 720.226 232.569V228.476C720.255 227.132 720.81 225.854 721.771 224.914C722.732 223.974 724.023 223.447 725.367 223.447C726.711 223.447 728.002 223.974 728.963 224.914C729.924 225.854 730.479 227.132 730.509 228.476V232.569C730.509 234.724 731.458 237.988 732.937 238.561V239.794H725.366Z" fill="#D9B500"/>
<path fill-rule="evenodd" clip-rule="evenodd" d="M725.366 223.338C726.041 223.338 726.71 223.471 727.333 223.729C727.957 223.987 728.524 224.365 729.002 224.842C729.479 225.319 729.858 225.886 730.117 226.509C730.375 227.133 730.509 227.801 730.509 228.477V232.569C730.509 234.724 731.459 237.988 732.937 238.561V239.794H725.366V223.338Z" fill="#C5A405"/>
<path fill-rule="evenodd" clip-rule="evenodd" d="M727.749 239.794C727.867 240.168 727.896 240.566 727.832 240.953C727.769 241.341 727.614 241.708 727.382 242.025C727.15 242.342 726.847 242.6 726.496 242.777C726.146 242.955 725.759 243.048 725.366 243.048C724.973 243.048 724.586 242.955 724.236 242.777C723.885 242.6 723.582 242.342 723.35 242.025C723.118 241.708 722.963 241.341 722.9 240.953C722.836 240.566 722.865 240.168 722.983 239.794H727.749Z" fill="#B2871C"/>
<path d="M726.508 219.801H724.227V223.584H726.508V219.801Z" fill="#B2871C"/>
<path d="M878.319 292.866H762.518V342.284H878.319V292.866Z" fill="#ECE8DB"/>
<path fill-rule="evenodd" clip-rule="evenodd" d="M371.13 277.745C374.149 308.699 386.926 328.366 400.322 342.284H389.532C378.021 330.344 366.704 304.191 367.464 277.745H371.13Z" fill="#B75720"/>
<path fill-rule="evenodd" clip-rule="evenodd" d="M394.926 342.284H389.529C378.021 330.344 366.704 304.191 367.464 277.745H369.624C369.768 278.882 369.877 280.085 369.923 281.371C371.424 319.669 394.915 342.284 394.915 342.284" fill="#904324"/>
<path fill-rule="evenodd" clip-rule="evenodd" d="M368.753 279.619C369.279 264.47 373.969 252.575 391.626 248.44C390.01 251.896 388.182 255.248 386.151 258.478L385.392 258.344L380.327 257.445L383.447 260.547L384.262 261.36C383.277 262.814 382.259 264.234 381.209 265.62L379.877 265.078L375.699 263.378L379.244 267.785L379.393 267.967C378.863 268.629 378.327 269.284 377.785 269.932L377.339 269.522L374.349 266.681L376.243 271.429L376.329 271.644C373.916 274.417 371.381 277.071 368.753 279.632" fill="#009844"/>
<path fill-rule="evenodd" clip-rule="evenodd" d="M369.49 279.535C383.46 273.64 396.227 272.89 407.409 287.163C403.593 287.15 399.78 286.901 395.994 286.419L395.797 285.659L394.485 280.7L392.983 284.831L392.588 285.912C390.856 285.632 389.139 285.307 387.438 284.937L387.369 283.501L387.154 278.996L384.642 284.061L384.538 284.274C383.716 284.071 382.897 283.86 382.08 283.64L382.277 283.061L383.599 279.156L380.084 282.868L379.925 283.038C376.395 282.025 372.921 280.835 369.49 279.528" fill="#40A437"/>
<path fill-rule="evenodd" clip-rule="evenodd" d="M369.49 279.535C377.714 266.8 387.843 258.992 405.123 264.493C401.962 266.635 398.673 268.581 395.273 270.317L394.688 269.811L390.808 266.45L391.895 270.712L392.178 271.827C390.588 272.57 388.984 273.267 387.367 273.918L386.501 272.771L383.784 269.17L384.561 274.764L384.594 274.997C383.802 275.296 383.006 275.584 382.206 275.861L382.042 275.271L380.94 271.295L380.125 276.332L380.089 276.562C376.595 277.704 373.057 278.685 369.487 279.535" fill="#6CB82D"/>
<path fill-rule="evenodd" clip-rule="evenodd" d="M369.49 279.535C380.378 282.007 388.334 287.039 388.889 300.375C386.612 298.728 384.438 296.943 382.381 295.029L382.584 294.5L383.931 290.969L381.257 292.795L380.555 293.274C379.642 292.36 378.756 291.432 377.896 290.488L378.471 289.599L380.279 286.814L376.603 288.761L376.451 288.842C376.045 288.371 375.645 287.892 375.253 287.411L375.617 287.158L378.086 285.385L374.389 286.099L374.222 286.132C372.548 284.005 370.978 281.807 369.49 279.548" fill="#009844"/>
<path fill-rule="evenodd" clip-rule="evenodd" d="M369.49 279.535C368.294 264.424 363.083 252.747 345.259 249.4C347.029 252.779 349.005 256.047 351.174 259.185L351.934 259.018L356.942 257.898L353.96 261.132L353.18 261.978C354.228 263.386 355.308 264.76 356.418 266.101L357.727 265.498L361.827 263.617L358.487 268.175L358.348 268.365C358.905 269.001 359.469 269.631 360.039 270.254L360.465 269.813L363.326 266.843L361.64 271.67L361.561 271.89C364.093 274.554 366.745 277.092 369.485 279.535" fill="#40A437"/>
<path fill-rule="evenodd" clip-rule="evenodd" d="M369.49 279.535C358.994 268.593 347.566 262.852 331.646 271.548C335.156 273.046 338.755 274.326 342.423 275.382L342.899 274.774L346.069 270.738L345.816 275.126L345.748 276.276C347.451 276.705 349.157 277.086 350.865 277.418L351.498 276.127L353.478 272.075L353.79 277.702V277.937C354.626 278.076 355.461 278.207 356.297 278.33L356.347 277.72L356.679 273.61L358.434 278.421L358.515 278.641C362.164 279.097 365.823 279.401 369.49 279.546" fill="#009844"/>
<path fill-rule="evenodd" clip-rule="evenodd" d="M369.49 279.535C358.285 285.107 350.949 292.704 353.873 307.362C355.918 304.967 357.812 302.449 359.546 299.82L359.186 299.296L356.783 295.806L360.181 297.088L361.07 297.424C361.825 296.189 362.544 294.939 363.227 293.676L362.366 292.861L359.66 290.303L364.179 291.456L364.369 291.501C364.683 290.881 364.992 290.253 365.294 289.625L364.825 289.435L361.668 288.168L365.884 287.966H366.076C367.342 285.205 368.461 282.394 369.49 279.548" fill="#40A437"/>
<path fill-rule="evenodd" clip-rule="evenodd" d="M369.49 279.535C357.548 275.797 347.001 276.193 338.946 288.802C342.079 288.486 345.191 287.978 348.262 287.282L348.366 286.652L349.05 282.473L350.614 285.75L351.022 286.606C352.423 286.238 353.808 285.834 355.175 285.395L355.117 284.213L354.94 280.495L357.401 284.453L357.505 284.618C358.163 284.387 358.819 284.149 359.472 283.906L359.267 283.443L357.872 280.341L361.05 283.126L361.197 283.253C364.015 282.134 366.767 280.885 369.49 279.543" fill="#6CB82D"/>
<path fill-rule="evenodd" clip-rule="evenodd" d="M368.831 276.917C368.255 276.917 367.693 277.089 367.214 277.409C366.735 277.729 366.363 278.184 366.143 278.716C365.923 279.249 365.865 279.834 365.978 280.399C366.091 280.964 366.368 281.482 366.775 281.889C367.183 282.296 367.702 282.574 368.266 282.686C368.831 282.798 369.417 282.74 369.949 282.52C370.481 282.299 370.935 281.926 371.255 281.447C371.575 280.968 371.746 280.405 371.746 279.829C371.746 279.447 371.67 279.068 371.524 278.714C371.377 278.361 371.163 278.039 370.892 277.769C370.621 277.499 370.3 277.284 369.946 277.138C369.593 276.992 369.214 276.917 368.831 276.917Z" fill="#6D2E1B"/>
<path fill-rule="evenodd" clip-rule="evenodd" d="M371.705 278.743C371.129 278.743 370.566 278.914 370.088 279.235C369.609 279.555 369.236 280.011 369.016 280.543C368.796 281.075 368.739 281.661 368.852 282.226C368.965 282.79 369.243 283.309 369.65 283.716C370.058 284.123 370.577 284.4 371.142 284.512C371.707 284.624 372.293 284.566 372.824 284.345C373.356 284.124 373.811 283.75 374.13 283.271C374.45 282.792 374.62 282.228 374.62 281.652C374.62 281.27 374.544 280.891 374.398 280.538C374.251 280.184 374.037 279.863 373.766 279.593C373.495 279.323 373.174 279.109 372.82 278.963C372.467 278.817 372.088 278.742 371.705 278.743Z" fill="#9F4B24"/>
<path fill-rule="evenodd" clip-rule="evenodd" d="M368.183 280.194C367.607 280.194 367.044 280.365 366.565 280.685C366.086 281.005 365.713 281.46 365.493 281.992C365.272 282.524 365.214 283.109 365.327 283.674C365.439 284.239 365.717 284.758 366.124 285.165C366.531 285.573 367.05 285.85 367.615 285.963C368.18 286.075 368.765 286.017 369.297 285.797C369.829 285.576 370.284 285.203 370.604 284.724C370.924 284.245 371.095 283.682 371.095 283.106C371.095 282.334 370.788 281.593 370.242 281.047C369.696 280.501 368.955 280.194 368.183 280.194Z" fill="#C8642F"/>
<path fill-rule="evenodd" clip-rule="evenodd" d="M466.823 262.33H495.15L515.319 244.59H486.989L466.823 262.33Z" fill="#F39F1E"/>
<path d="M541.563 280.574H406.607V342.281H541.563V280.574Z" fill="#FBF8F3"/>
<path fill-rule="evenodd" clip-rule="evenodd" d="M439.422 342.284H411.777V306.07C411.827 302.435 413.305 298.966 415.893 296.412C418.48 293.859 421.969 292.428 425.605 292.428C429.24 292.428 432.729 293.859 435.316 296.412C437.904 298.966 439.382 302.435 439.432 306.07L439.422 342.284Z" fill="#B4B5B5"/>
<path fill-rule="evenodd" clip-rule="evenodd" d="M439.421 342.284H416.632V306.07C416.643 302.829 417.789 299.693 419.871 297.208C421.952 294.723 424.838 293.046 428.027 292.466C431.216 293.046 434.101 294.723 436.183 297.208C438.264 299.693 439.41 302.829 439.421 306.07V342.284Z" fill="#01283D"/>
<path fill-rule="evenodd" clip-rule="evenodd" d="M471.748 342.284H444.093V306.07C444.143 302.435 445.621 298.966 448.209 296.412C450.797 293.859 454.285 292.428 457.921 292.428C461.556 292.428 465.045 293.859 467.632 296.412C470.22 298.966 471.699 302.435 471.748 306.07V342.284Z" fill="#B4B5B5"/>
<path fill-rule="evenodd" clip-rule="evenodd" d="M504.074 342.284H476.422V306.07C476.422 302.403 477.879 298.886 480.472 296.293C483.064 293.7 486.581 292.243 490.248 292.243C493.915 292.243 497.431 293.7 500.024 296.293C502.617 298.886 504.074 302.403 504.074 306.07V342.284Z" fill="#B4B5B5"/>
<path fill-rule="evenodd" clip-rule="evenodd" d="M536.403 342.284H508.761V306.07C508.81 302.435 510.289 298.966 512.876 296.412C515.464 293.859 518.953 292.428 522.588 292.428C526.223 292.428 529.712 293.859 532.3 296.412C534.888 298.966 536.366 302.435 536.415 306.07L536.403 342.284Z" fill="#B4B5B5"/>
<path fill-rule="evenodd" clip-rule="evenodd" d="M471.748 342.284H448.958V306.07C448.969 302.828 450.115 299.693 452.196 297.208C454.278 294.723 457.163 293.045 460.353 292.466C463.542 293.045 466.428 294.723 468.509 297.208C470.591 299.693 471.737 302.828 471.748 306.07V342.284Z" fill="#01283D"/>
<path fill-rule="evenodd" clip-rule="evenodd" d="M504.074 342.284H481.284V306.07C481.295 302.828 482.44 299.693 484.522 297.207C486.603 294.722 489.489 293.045 492.679 292.466C495.868 293.045 498.754 294.723 500.835 297.208C502.917 299.693 504.063 302.828 504.074 306.07V342.284Z" fill="#01283D"/>
<path fill-rule="evenodd" clip-rule="evenodd" d="M536.403 342.284H513.613V306.07C513.624 302.828 514.77 299.693 516.851 297.208C518.933 294.723 521.818 293.045 525.008 292.466C528.197 293.045 531.083 294.723 533.164 297.208C535.246 299.693 536.391 302.828 536.403 306.07V342.284Z" fill="#01283D"/>
<path d="M541.563 275.514H406.607V280.576H541.563V275.514Z" fill="#B4B5B5"/>
<path d="M654.272 183.037H541.563V342.284H654.272V183.037Z" fill="#ECE8DB"/>
<path d="M541.563 183.037H520.298V275.514H541.563V183.037Z" fill="#FBF8F3"/>
<path fill-rule="evenodd" clip-rule="evenodd" d="M587.513 132.518C616.633 132.518 640.603 154.666 643.452 183.04H531.563C534.415 154.664 558.372 132.518 587.513 132.518Z" fill="#0073B6"/>
<path fill-rule="evenodd" clip-rule="evenodd" d="M539.284 183.037C540.565 173.269 544.388 164.008 550.37 156.182C556.353 148.355 564.286 142.237 573.375 138.438C565.816 143.418 559.436 149.989 554.683 157.693C549.93 165.397 546.918 174.047 545.858 183.037H539.284Z" fill="#00507A"/>
<path d="M600.108 116.161H574.902V133.966H600.108V116.161Z" fill="#ECE8DB"/>
<path fill-rule="evenodd" clip-rule="evenodd" d="M569.577 195.322C568.624 195.322 567.68 195.509 566.799 195.874C565.918 196.238 565.117 196.773 564.443 197.447C563.768 198.121 563.233 198.921 562.868 199.802C562.503 200.682 562.315 201.626 562.315 202.58V214.138H576.837V202.582C576.837 201.629 576.649 200.685 576.284 199.804C575.919 198.923 575.385 198.123 574.71 197.448C574.036 196.774 573.236 196.239 572.355 195.875C571.474 195.51 570.53 195.322 569.577 195.322Z" fill="#B4B5B5"/>
<path fill-rule="evenodd" clip-rule="evenodd" d="M568.232 195.449C566.569 195.761 565.068 196.646 563.987 197.948C562.907 199.251 562.315 200.89 562.315 202.582V214.14H574.15V202.582C574.15 200.89 573.558 199.251 572.478 197.948C571.397 196.646 569.896 195.761 568.232 195.449Z" fill="#272423"/>
<path fill-rule="evenodd" clip-rule="evenodd" d="M606.914 195.322C604.991 195.325 603.148 196.092 601.789 197.453C600.43 198.814 599.667 200.659 599.667 202.583V214.141H614.189V202.583C614.189 201.628 614.001 200.682 613.635 199.801C613.27 198.919 612.733 198.118 612.058 197.443C611.382 196.769 610.58 196.234 609.697 195.87C608.815 195.506 607.869 195.32 606.914 195.322Z" fill="#B4B5B5"/>
<path fill-rule="evenodd" clip-rule="evenodd" d="M605.572 195.449C603.911 195.764 602.413 196.649 601.335 197.952C600.257 199.254 599.667 200.892 599.667 202.582V214.14H611.503V202.582C611.502 200.89 610.911 199.251 609.83 197.948C608.75 196.646 607.248 195.761 605.585 195.449" fill="#272423"/>
<path fill-rule="evenodd" clip-rule="evenodd" d="M605.332 248.389H605.408V342.284H552.274V248.389L565.538 235.985L578.802 223.579L592.068 235.985L605.332 248.389Z" fill="#FBF8F3"/>
<path d="M654.272 248.389H605.408V342.281H654.272V248.389Z" fill="#ECE8DB"/>
<path fill-rule="evenodd" clip-rule="evenodd" d="M654.272 248.389L641.008 235.985L627.742 223.579H627.668H578.802L592.068 235.985L605.332 248.389H605.408H654.272Z" fill="#0073B6"/>
<path fill-rule="evenodd" clip-rule="evenodd" d="M578.84 288.946C580.59 288.945 582.323 289.289 583.94 289.958C585.557 290.628 587.026 291.609 588.264 292.846C589.502 294.083 590.484 295.552 591.154 297.169C591.824 298.786 592.169 300.519 592.169 302.269V342.281H565.51V302.269C565.511 300.519 565.856 298.786 566.526 297.169C567.196 295.552 568.178 294.083 569.416 292.846C570.653 291.609 572.123 290.628 573.74 289.958C575.357 289.289 577.09 288.945 578.84 288.946Z" fill="#B4B5B5"/>
<path fill-rule="evenodd" clip-rule="evenodd" d="M581.304 289.174C584.357 289.748 587.114 291.37 589.098 293.762C591.082 296.153 592.168 299.162 592.169 302.269V342.281H570.44V302.269C570.441 299.162 571.527 296.153 573.511 293.762C575.494 291.371 578.251 289.748 581.304 289.174Z" fill="#272423"/>
<path fill-rule="evenodd" clip-rule="evenodd" d="M629.838 263.66C628.297 263.659 626.77 263.963 625.346 264.552C623.921 265.142 622.627 266.006 621.537 267.096C620.446 268.186 619.581 269.48 618.991 270.905C618.401 272.329 618.097 273.856 618.097 275.397V294.087H641.58V275.397C641.58 273.856 641.276 272.329 640.686 270.905C640.095 269.48 639.23 268.186 638.14 267.096C637.05 266.006 635.755 265.142 634.331 264.552C632.907 263.963 631.38 263.659 629.838 263.66Z" fill="#B4B5B5"/>
<path fill-rule="evenodd" clip-rule="evenodd" d="M627.668 263.862C624.979 264.368 622.55 265.798 620.803 267.904C619.055 270.01 618.098 272.66 618.097 275.397V294.087H637.238V275.397C637.237 272.661 636.28 270.01 634.533 267.904C632.786 265.798 630.358 264.368 627.668 263.862Z" fill="#272423"/>
<path fill-rule="evenodd" clip-rule="evenodd" d="M578.84 254.834C579.793 254.834 580.737 255.021 581.618 255.386C582.499 255.75 583.3 256.285 583.974 256.959C584.648 257.633 585.183 258.433 585.549 259.314C585.914 260.195 586.102 261.139 586.102 262.092V273.65H571.58V262.097C571.58 261.143 571.767 260.199 572.132 259.318C572.496 258.437 573.031 257.636 573.705 256.962C574.38 256.287 575.18 255.752 576.061 255.387C576.942 255.022 577.886 254.834 578.84 254.834Z" fill="#B4B5B5"/>
<path fill-rule="evenodd" clip-rule="evenodd" d="M580.184 254.966C581.847 255.278 583.349 256.162 584.43 257.464C585.51 258.766 586.102 260.405 586.102 262.097V273.655H574.264V262.097C574.265 260.404 574.857 258.765 575.938 257.463C577.019 256.161 578.521 255.278 580.184 254.966Z" fill="#272423"/>
<path fill-rule="evenodd" clip-rule="evenodd" d="M467.488 191.604L506.664 214.758H491.099L467.488 191.604Z" fill="#0073B6"/>
<path fill-rule="evenodd" clip-rule="evenodd" d="M443.982 214.71C443.982 217.691 442.149 220.13 439.908 220.13H432.352C430.111 220.13 428.277 217.691 428.277 214.71H443.982Z" fill="#00507A"/>
<path fill-rule="evenodd" clip-rule="evenodd" d="M443.982 214.71L467.488 191.604L428.277 214.71H443.982Z" fill="#0073B6"/>
<path fill-rule="evenodd" clip-rule="evenodd" d="M459.689 214.758L467.489 191.604L443.982 214.758H459.689Z" fill="#00507A"/>
<path fill-rule="evenodd" clip-rule="evenodd" d="M475.394 214.758L467.489 191.604L459.689 214.758H475.394Z" fill="#0073B6"/>
<path fill-rule="evenodd" clip-rule="evenodd" d="M491.099 214.758L467.488 191.604L475.376 214.71L491.099 214.758Z" fill="#00507A"/>
<path fill-rule="evenodd" clip-rule="evenodd" d="M459.689 214.71C459.689 217.691 457.856 220.13 455.615 220.13H448.056C445.815 220.13 443.982 217.691 443.982 214.71H459.689Z" fill="#0073B6"/>
<path fill-rule="evenodd" clip-rule="evenodd" d="M475.394 214.71C475.394 217.691 473.561 220.13 471.32 220.13H463.761C461.523 220.13 459.689 217.691 459.689 214.71H475.394Z" fill="#00507A"/>
<path fill-rule="evenodd" clip-rule="evenodd" d="M491.084 214.71C491.084 217.691 489.25 220.13 487.009 220.13H479.451C477.21 220.13 475.376 217.691 475.376 214.71H491.084Z" fill="#0073B6"/>
<path fill-rule="evenodd" clip-rule="evenodd" d="M506.788 214.71C506.788 217.691 504.955 220.13 502.717 220.13H495.158C492.917 220.13 491.084 217.691 491.084 214.71H506.788Z" fill="#00507A"/>
<path d="M468.615 220.13H466.45V275.514H468.615V220.13Z" fill="#745D38"/>
<path d="M467.532 220.13H466.45V275.514H467.532V220.13Z" fill="#C8A44F"/>
<path d="M443.622 262.33H440.204V275.511H443.622V262.33Z" fill="#F39F1E"/>
<path d="M490.509 262.33H487.09V275.511H490.509V262.33Z" fill="#F39F1E"/>
<path fill-rule="evenodd" clip-rule="evenodd" d="M422.089 262.33H493.314C493.951 262.329 494.561 262.075 495.011 261.626C495.462 261.176 495.715 260.566 495.717 259.929C495.715 259.293 495.461 258.684 495.011 258.234C494.56 257.784 493.951 257.531 493.314 257.529H422.089C421.453 257.531 420.843 257.784 420.393 258.234C419.944 258.684 419.69 259.293 419.688 259.929C419.69 260.565 419.944 261.175 420.393 261.625C420.843 262.074 421.453 262.328 422.089 262.33Z" fill="#F7B300"/>
<path d="M428.401 262.33H424.983V275.511H428.401V262.33Z" fill="#F39F1E"/>
<path d="M475.288 262.33H471.869V275.511H475.288V262.33Z" fill="#F39F1E"/>
</g>
</g>
</g>
<g clip-path="url(#clip2_1925_66)">
<path fill-rule="evenodd" clip-rule="evenodd" d="M363.815 330.284C349.128 298.915 376.554 250.852 415.801 231.978C491.729 195.46 497.389 170.594 491.02 151.753C475.128 104.731 463.136 75.3442 505.755 74.4883C596.011 72.6751 528.122 38.4189 588.019 9.94927C645.619 -17.4288 762.329 30.505 762.329 83.7747C762.329 159.335 808.921 152.616 880.636 201.444C964.28 258.401 796.291 287.911 895.682 330.284H363.815Z" fill="#9ED8F5"/>
<path fill-rule="evenodd" clip-rule="evenodd" d="M728.529 188.593C734.648 189.716 740.181 192.948 744.164 197.728C748.148 202.507 750.331 208.531 750.334 214.753V262.196H772.133V342.284H631.722V262.196H653.522V214.753C653.525 208.532 655.707 202.508 659.69 197.729C663.672 192.95 669.203 189.717 675.322 188.593V141.926C675.322 134.869 678.125 128.101 683.115 123.111C688.104 118.121 694.872 115.318 701.928 115.318C708.984 115.318 715.752 118.121 720.741 123.111C725.731 128.101 728.534 134.869 728.534 141.926L728.529 188.593Z" fill="#FBF8F3"/>
<path fill-rule="evenodd" clip-rule="evenodd" d="M658.321 274.271C662.827 274.27 667.15 276.059 670.337 279.246C673.524 282.432 675.316 286.754 675.317 291.261V342.284H641.327V291.261C641.327 289.029 641.767 286.819 642.621 284.758C643.476 282.696 644.728 280.823 646.306 279.246C647.884 277.668 649.757 276.417 651.818 275.563C653.88 274.709 656.089 274.27 658.321 274.271Z" fill="#B4B5B5"/>
<path fill-rule="evenodd" clip-rule="evenodd" d="M661.466 274.562C665.359 275.294 668.873 277.364 671.403 280.413C673.932 283.462 675.316 287.299 675.317 291.261V342.284H647.612V291.261C647.613 287.299 648.999 283.462 651.528 280.413C654.058 277.364 657.573 275.294 661.466 274.562Z" fill="#01283D"/>
<path fill-rule="evenodd" clip-rule="evenodd" d="M701.923 274.271C706.43 274.27 710.752 276.059 713.939 279.246C717.126 282.432 718.918 286.754 718.919 291.261V342.284H684.927V291.261C684.928 286.754 686.719 282.432 689.907 279.246C693.094 276.059 697.416 274.27 701.923 274.271Z" fill="#B4B5B5"/>
<path fill-rule="evenodd" clip-rule="evenodd" d="M705.065 274.562C708.958 275.294 712.473 277.364 715.003 280.413C717.533 283.462 718.918 287.299 718.919 291.261V342.284H691.214V291.261C691.215 287.299 692.6 283.463 695.129 280.414C697.658 277.365 701.173 275.295 705.065 274.562Z" fill="#01283D"/>
<path fill-rule="evenodd" clip-rule="evenodd" d="M745.522 274.271C747.754 274.27 749.963 274.709 752.025 275.563C754.086 276.417 755.959 277.668 757.537 279.246C759.115 280.823 760.367 282.696 761.222 284.758C762.076 286.819 762.516 289.029 762.516 291.261V342.284H728.529V291.261C728.53 286.754 730.321 282.432 733.509 279.246C736.696 276.059 741.018 274.27 745.525 274.271" fill="#B4B5B5"/>
<path fill-rule="evenodd" clip-rule="evenodd" d="M748.665 274.562C752.558 275.294 756.073 277.364 758.603 280.413C761.132 283.462 762.517 287.299 762.519 291.261V342.284H734.814V291.261C734.815 287.299 736.2 283.463 738.729 280.414C741.258 277.365 744.772 275.295 748.665 274.562Z" fill="#01283D"/>
<path fill-rule="evenodd" clip-rule="evenodd" d="M680.123 197.766C684.629 197.765 688.951 199.554 692.138 202.74C695.324 205.926 697.115 210.247 697.117 214.753V262.196H663.127V214.753C663.128 212.522 663.568 210.312 664.422 208.251C665.277 206.189 666.529 204.317 668.107 202.739C669.685 201.162 671.559 199.911 673.621 199.057C675.682 198.204 677.892 197.765 680.123 197.766Z" fill="#B4B5B5"/>
<path fill-rule="evenodd" clip-rule="evenodd" d="M683.266 198.057C687.158 198.789 690.673 200.858 693.202 203.907C695.731 206.956 697.116 210.792 697.117 214.753V262.196H669.412V214.753C669.413 210.792 670.798 206.955 673.328 203.907C675.858 200.858 679.373 198.789 683.266 198.057Z" fill="#00507A"/>
<path fill-rule="evenodd" clip-rule="evenodd" d="M723.723 197.766C728.228 197.766 732.548 199.556 735.734 202.742C738.92 205.927 740.71 210.248 740.711 214.753V262.196H706.729V214.753C706.73 210.247 708.521 205.926 711.708 202.74C714.895 199.554 719.217 197.765 723.723 197.766Z" fill="#B4B5B5"/>
<path fill-rule="evenodd" clip-rule="evenodd" d="M726.865 198.057C730.757 198.791 734.27 200.86 736.798 203.909C739.326 206.957 740.71 210.793 740.711 214.753V262.196H713.014V214.753C713.015 210.792 714.4 206.956 716.929 203.907C719.458 200.859 722.973 198.79 726.865 198.057Z" fill="#00507A"/>
<path fill-rule="evenodd" clip-rule="evenodd" d="M701.923 124.938C704.154 124.938 706.364 125.376 708.426 126.23C710.487 127.083 712.361 128.334 713.939 129.912C715.517 131.489 716.769 133.362 717.624 135.423C718.478 137.485 718.918 139.694 718.919 141.926V185.519H684.927V141.926C684.927 139.694 685.368 137.485 686.222 135.423C687.077 133.362 688.329 131.489 689.907 129.912C691.485 128.334 693.359 127.083 695.42 126.23C697.482 125.376 699.692 124.938 701.923 124.938Z" fill="#B4B5B5"/>
<path fill-rule="evenodd" clip-rule="evenodd" d="M705.065 125.229C708.958 125.962 712.473 128.031 715.002 131.08C717.532 134.128 718.917 137.964 718.919 141.926V185.519H691.214V141.926C691.216 137.965 692.601 134.129 695.13 131.08C697.659 128.032 701.173 125.962 705.065 125.229Z" fill="#00507A"/>
<path d="M718.916 142.587H688.213V145.377H718.916V142.587Z" fill="#956C26"/>
<path fill-rule="evenodd" clip-rule="evenodd" d="M703.566 165.371H695.995V164.138C697.474 163.568 698.426 160.301 698.426 158.146V154.043C698.426 152.68 698.967 151.372 699.931 150.408C700.895 149.444 702.203 148.903 703.566 148.903C704.929 148.903 706.237 149.444 707.201 150.408C708.165 151.372 708.707 152.68 708.707 154.043V158.146C708.707 160.301 709.659 163.568 711.137 164.138V165.371H703.566Z" fill="#D9B500"/>
<path fill-rule="evenodd" clip-rule="evenodd" d="M703.566 148.915C704.241 148.915 704.909 149.047 705.533 149.306C706.157 149.564 706.723 149.942 707.201 150.419C707.678 150.896 708.057 151.463 708.315 152.087C708.574 152.71 708.707 153.378 708.707 154.053V158.146C708.707 160.301 709.659 163.568 711.137 164.138V165.371H703.566V148.915Z" fill="#C5A405"/>
<path fill-rule="evenodd" clip-rule="evenodd" d="M705.949 165.371C706.067 165.745 706.096 166.143 706.032 166.53C705.969 166.918 705.815 167.285 705.582 167.602C705.35 167.919 705.047 168.177 704.697 168.354C704.346 168.532 703.959 168.625 703.566 168.625C703.173 168.625 702.786 168.532 702.436 168.354C702.085 168.177 701.782 167.919 701.55 167.602C701.318 167.285 701.164 166.918 701.1 166.53C701.036 166.143 701.065 165.745 701.183 165.371H705.949Z" fill="#B2871C"/>
<path d="M704.708 145.377H702.427V149.161H704.708V145.377Z" fill="#B2871C"/>
<path d="M697.117 217.007H666.414V219.8H697.117V217.007Z" fill="#956C26"/>
<path fill-rule="evenodd" clip-rule="evenodd" d="M681.766 239.794H674.195V238.561C675.674 237.988 676.623 234.724 676.623 232.569V228.476C676.653 227.132 677.208 225.854 678.169 224.914C679.13 223.974 680.421 223.447 681.765 223.447C683.109 223.447 684.4 223.974 685.361 224.914C686.322 225.854 686.877 227.132 686.907 228.476V232.569C686.907 234.724 687.859 237.988 689.338 238.561V239.794H681.766Z" fill="#D9B500"/>
<path fill-rule="evenodd" clip-rule="evenodd" d="M681.766 223.338C682.441 223.338 683.11 223.471 683.733 223.729C684.357 223.987 684.924 224.365 685.401 224.842C685.878 225.319 686.257 225.886 686.515 226.51C686.774 227.133 686.907 227.802 686.907 228.477V232.569C686.907 234.724 687.859 237.988 689.338 238.561V239.794H681.766V223.338Z" fill="#C5A405"/>
<path fill-rule="evenodd" clip-rule="evenodd" d="M684.149 239.794C684.268 240.168 684.296 240.566 684.233 240.953C684.169 241.341 684.015 241.708 683.783 242.025C683.551 242.342 683.247 242.6 682.897 242.777C682.546 242.955 682.159 243.048 681.766 243.048C681.374 243.048 680.986 242.955 680.636 242.777C680.286 242.6 679.982 242.342 679.75 242.025C679.518 241.708 679.364 241.341 679.3 240.953C679.236 240.566 679.265 240.168 679.384 239.794H684.149Z" fill="#B2871C"/>
<path d="M682.906 219.801H680.625V223.584H682.906V219.801Z" fill="#B2871C"/>
<path d="M740.719 217.007H710.016V219.8H740.719V217.007Z" fill="#956C26"/>
<path fill-rule="evenodd" clip-rule="evenodd" d="M725.366 239.794H717.795V238.561C719.273 237.988 720.226 234.724 720.226 232.569V228.476C720.255 227.132 720.81 225.854 721.771 224.914C722.732 223.974 724.023 223.447 725.367 223.447C726.711 223.447 728.002 223.974 728.963 224.914C729.924 225.854 730.479 227.132 730.509 228.476V232.569C730.509 234.724 731.458 237.988 732.937 238.561V239.794H725.366Z" fill="#D9B500"/>
<path fill-rule="evenodd" clip-rule="evenodd" d="M725.366 223.338C726.041 223.338 726.71 223.471 727.334 223.729C727.957 223.987 728.524 224.365 729.002 224.842C729.479 225.319 729.858 225.886 730.117 226.509C730.375 227.133 730.509 227.801 730.509 228.477V232.569C730.509 234.724 731.459 237.988 732.938 238.561V239.794H725.366V223.338Z" fill="#C5A405"/>
<path fill-rule="evenodd" clip-rule="evenodd" d="M727.749 239.794C727.867 240.168 727.896 240.566 727.832 240.953C727.769 241.341 727.614 241.708 727.382 242.025C727.15 242.342 726.847 242.6 726.496 242.777C726.146 242.955 725.759 243.048 725.366 243.048C724.973 243.048 724.586 242.955 724.236 242.777C723.885 242.6 723.582 242.342 723.35 242.025C723.118 241.708 722.963 241.341 722.9 240.953C722.836 240.566 722.865 240.168 722.983 239.794H727.749Z" fill="#B2871C"/>
<path d="M726.508 219.801H724.227V223.584H726.508V219.801Z" fill="#B2871C"/>
<path d="M878.319 292.866H762.519V342.284H878.319V292.866Z" fill="#ECE8DB"/>
<path d="M541.563 280.574H406.607V342.281H541.563V280.574Z" fill="#FBF8F3"/>
<path fill-rule="evenodd" clip-rule="evenodd" d="M439.422 342.284H411.777V306.07C411.827 302.435 413.305 298.966 415.893 296.412C418.481 293.859 421.969 292.428 425.605 292.428C429.24 292.428 432.729 293.859 435.316 296.412C437.904 298.966 439.383 302.435 439.432 306.07L439.422 342.284Z" fill="#B4B5B5"/>
<path fill-rule="evenodd" clip-rule="evenodd" d="M439.422 342.284H416.632V306.07C416.643 302.829 417.789 299.694 419.871 297.209C421.952 294.724 424.838 293.046 428.027 292.466C431.216 293.046 434.101 294.724 436.183 297.209C438.264 299.694 439.41 302.829 439.422 306.07V342.284Z" fill="#01283D"/>
<path fill-rule="evenodd" clip-rule="evenodd" d="M471.748 342.284H444.094V306.07C444.143 302.435 445.621 298.966 448.209 296.412C450.797 293.859 454.286 292.428 457.921 292.428C461.556 292.428 465.045 293.859 467.632 296.412C470.22 298.966 471.699 302.435 471.748 306.07V342.284Z" fill="#B4B5B5"/>
<path fill-rule="evenodd" clip-rule="evenodd" d="M504.074 342.284H476.422V306.07C476.422 302.403 477.879 298.886 480.472 296.293C483.064 293.7 486.581 292.243 490.248 292.243C493.915 292.243 497.431 293.7 500.024 296.293C502.617 298.886 504.074 302.403 504.074 306.07V342.284Z" fill="#B4B5B5"/>
<path fill-rule="evenodd" clip-rule="evenodd" d="M536.403 342.284H508.761V306.07C508.81 302.435 510.289 298.966 512.876 296.412C515.464 293.859 518.953 292.428 522.588 292.428C526.223 292.428 529.712 293.859 532.3 296.412C534.888 298.966 536.366 302.435 536.415 306.07L536.403 342.284Z" fill="#B4B5B5"/>
<path fill-rule="evenodd" clip-rule="evenodd" d="M471.748 342.284H448.958V306.07C448.969 302.829 450.115 299.693 452.196 297.208C454.278 294.723 457.164 293.045 460.353 292.466C463.542 293.045 466.428 294.723 468.509 297.208C470.591 299.693 471.737 302.829 471.748 306.07V342.284Z" fill="#01283D"/>
<path fill-rule="evenodd" clip-rule="evenodd" d="M504.074 342.284H481.284V306.07C481.295 302.828 482.44 299.693 484.522 297.208C486.603 294.722 489.489 293.045 492.679 292.466C495.868 293.045 498.754 294.723 500.835 297.208C502.917 299.693 504.063 302.829 504.074 306.07V342.284Z" fill="#01283D"/>
<path fill-rule="evenodd" clip-rule="evenodd" d="M536.403 342.284H513.613V306.07C513.624 302.829 514.77 299.693 516.851 297.208C518.933 294.723 521.818 293.045 525.008 292.466C528.197 293.045 531.083 294.723 533.164 297.208C535.246 299.693 536.391 302.829 536.403 306.07V342.284Z" fill="#01283D"/>
<path d="M541.563 275.514H406.607V280.576H541.563V275.514Z" fill="#B4B5B5"/>
<path d="M654.272 183.037H541.563V342.284H654.272V183.037Z" fill="#ECE8DB"/>
<path d="M541.563 183.037H520.298V275.514H541.563V183.037Z" fill="#FBF8F3"/>
<path fill-rule="evenodd" clip-rule="evenodd" d="M587.513 132.518C616.633 132.518 640.603 154.666 643.452 183.04H531.563C534.415 154.664 558.372 132.518 587.513 132.518Z" fill="#0073B6"/>
<path fill-rule="evenodd" clip-rule="evenodd" d="M539.284 183.037C540.565 173.269 544.388 164.009 550.371 156.182C556.353 148.355 564.286 142.237 573.375 138.439C565.816 143.418 559.436 149.99 554.683 157.693C549.93 165.397 546.918 174.047 545.858 183.037H539.284Z" fill="#00507A"/>
<path d="M600.108 116.161H574.902V133.966H600.108V116.161Z" fill="#ECE8DB"/>
<path fill-rule="evenodd" clip-rule="evenodd" d="M587.513 104.864C590.627 104.863 593.63 106.018 595.941 108.105C598.252 110.192 599.706 113.063 600.022 116.161H575.004C575.319 113.063 576.773 110.192 579.084 108.105C581.395 106.018 584.399 104.863 587.513 104.864Z" fill="#0073B6"/>
<path fill-rule="evenodd" clip-rule="evenodd" d="M576.72 116.161C577.006 113.975 577.86 111.903 579.198 110.151C580.536 108.399 582.311 107.03 584.345 106.18C582.654 107.294 581.228 108.763 580.165 110.486C579.102 112.209 578.429 114.143 578.192 116.153L576.72 116.161Z" fill="#00507A"/>
<path fill-rule="evenodd" clip-rule="evenodd" d="M569.577 195.322C568.624 195.322 567.679 195.509 566.799 195.874C565.918 196.238 565.117 196.773 564.443 197.447C563.768 198.121 563.233 198.921 562.868 199.802C562.503 200.682 562.315 201.627 562.315 202.58V214.138H576.837V202.582C576.837 201.629 576.649 200.685 576.284 199.804C575.919 198.923 575.385 198.123 574.71 197.449C574.036 196.774 573.236 196.24 572.355 195.875C571.474 195.51 570.53 195.322 569.577 195.322Z" fill="#B4B5B5"/>
<path fill-rule="evenodd" clip-rule="evenodd" d="M568.232 195.449C566.569 195.761 565.068 196.646 563.987 197.948C562.906 199.251 562.315 200.89 562.315 202.582V214.14H574.15V202.582C574.15 200.89 573.558 199.251 572.478 197.948C571.397 196.646 569.896 195.761 568.232 195.449Z" fill="#272423"/>
<path fill-rule="evenodd" clip-rule="evenodd" d="M606.914 195.322C604.991 195.325 603.148 196.092 601.789 197.453C600.43 198.814 599.667 200.659 599.667 202.583V214.141H614.189V202.583C614.189 201.628 614.001 200.682 613.635 199.801C613.27 198.919 612.733 198.118 612.058 197.443C611.382 196.769 610.58 196.234 609.697 195.87C608.815 195.506 607.869 195.32 606.914 195.322Z" fill="#B4B5B5"/>
<path fill-rule="evenodd" clip-rule="evenodd" d="M605.572 195.449C603.911 195.764 602.413 196.649 601.335 197.952C600.257 199.254 599.667 200.892 599.667 202.582V214.14H611.503V202.582C611.502 200.89 610.911 199.251 609.83 197.948C608.75 196.646 607.248 195.761 605.585 195.449" fill="#272423"/>
<path fill-rule="evenodd" clip-rule="evenodd" d="M605.332 248.389H605.408V342.284H552.274V248.389L565.538 235.985L578.802 223.579L592.068 235.985L605.332 248.389Z" fill="#FBF8F3"/>
<path d="M654.272 248.389H605.408V342.281H654.272V248.389Z" fill="#ECE8DB"/>
<path fill-rule="evenodd" clip-rule="evenodd" d="M654.272 248.389L641.008 235.985L627.742 223.579H627.668H578.802L592.068 235.985L605.332 248.389H605.408H654.272Z" fill="#0073B6"/>
<path fill-rule="evenodd" clip-rule="evenodd" d="M578.84 288.946C580.59 288.945 582.323 289.289 583.94 289.959C585.557 290.628 587.026 291.609 588.264 292.846C589.502 294.083 590.484 295.552 591.154 297.169C591.824 298.786 592.169 300.519 592.169 302.269V342.281H565.51V302.269C565.511 300.519 565.856 298.786 566.526 297.169C567.196 295.552 568.178 294.083 569.416 292.846C570.653 291.609 572.123 290.628 573.74 289.959C575.357 289.289 577.09 288.945 578.84 288.946Z" fill="#B4B5B5"/>
<path fill-rule="evenodd" clip-rule="evenodd" d="M581.304 289.174C584.357 289.748 587.114 291.37 589.098 293.762C591.082 296.153 592.168 299.162 592.169 302.269V342.281H570.44V302.269C570.441 299.162 571.527 296.153 573.511 293.762C575.494 291.371 578.251 289.748 581.304 289.174Z" fill="#272423"/>
<path fill-rule="evenodd" clip-rule="evenodd" d="M629.839 263.66C628.297 263.659 626.77 263.963 625.346 264.552C623.921 265.142 622.627 266.006 621.537 267.096C620.446 268.186 619.581 269.48 618.991 270.905C618.401 272.329 618.097 273.856 618.097 275.397V294.087H641.58V275.397C641.58 273.856 641.276 272.329 640.686 270.905C640.096 269.48 639.231 268.186 638.14 267.096C637.05 266.006 635.756 265.142 634.331 264.552C632.907 263.963 631.38 263.659 629.839 263.66Z" fill="#B4B5B5"/>
<path fill-rule="evenodd" clip-rule="evenodd" d="M627.668 263.862C624.979 264.368 622.55 265.798 620.803 267.904C619.055 270.01 618.098 272.66 618.097 275.397V294.087H637.238V275.397C637.237 272.661 636.28 270.01 634.533 267.904C632.786 265.798 630.358 264.368 627.668 263.862Z" fill="#272423"/>
<path fill-rule="evenodd" clip-rule="evenodd" d="M578.84 254.834C579.793 254.834 580.737 255.021 581.618 255.386C582.499 255.75 583.3 256.285 583.974 256.959C584.648 257.633 585.183 258.433 585.549 259.314C585.914 260.195 586.102 261.139 586.102 262.092V273.65H571.58V262.097C571.58 261.143 571.767 260.199 572.132 259.318C572.497 258.437 573.031 257.636 573.705 256.962C574.38 256.287 575.18 255.752 576.061 255.387C576.942 255.022 577.886 254.834 578.84 254.834Z" fill="#B4B5B5"/>
<path fill-rule="evenodd" clip-rule="evenodd" d="M580.184 254.966C581.847 255.278 583.349 256.162 584.43 257.464C585.51 258.766 586.102 260.405 586.102 262.097V273.655H574.264V262.097C574.265 260.405 574.857 258.765 575.938 257.463C577.019 256.161 578.521 255.278 580.184 254.966Z" fill="#272423"/>
<path d="M591.992 100.075H583.015V105.692H591.992V100.075Z" fill="#ECE8DB"/>
<path d="M588.579 78.7137H586.431V100.075H588.579V78.7137Z" fill="#ECE8DB"/>
<path fill-rule="evenodd" clip-rule="evenodd" d="M466.823 262.33H495.15L515.319 244.591H486.989L466.823 262.33Z" fill="#F39F1E"/>
<path fill-rule="evenodd" clip-rule="evenodd" d="M467.489 191.604L506.664 214.759H491.099L467.489 191.604Z" fill="#0073B6"/>
<path fill-rule="evenodd" clip-rule="evenodd" d="M443.982 214.71C443.982 217.691 442.149 220.13 439.908 220.13H432.352C430.111 220.13 428.277 217.691 428.277 214.71H443.982Z" fill="#00507A"/>
<path fill-rule="evenodd" clip-rule="evenodd" d="M443.982 214.71L467.489 191.604L428.277 214.71H443.982Z" fill="#0073B6"/>
<path fill-rule="evenodd" clip-rule="evenodd" d="M459.689 214.759L467.489 191.604L443.982 214.759H459.689Z" fill="#00507A"/>
<path fill-rule="evenodd" clip-rule="evenodd" d="M475.394 214.759L467.489 191.604L459.689 214.759H475.394Z" fill="#0073B6"/>
<path fill-rule="evenodd" clip-rule="evenodd" d="M491.099 214.759L467.489 191.604L475.376 214.71L491.099 214.759Z" fill="#00507A"/>
<path fill-rule="evenodd" clip-rule="evenodd" d="M459.689 214.71C459.689 217.691 457.856 220.13 455.615 220.13H448.056C445.815 220.13 443.982 217.691 443.982 214.71H459.689Z" fill="#0073B6"/>
<path fill-rule="evenodd" clip-rule="evenodd" d="M475.394 214.71C475.394 217.691 473.561 220.13 471.32 220.13H463.761C461.523 220.13 459.689 217.691 459.689 214.71H475.394Z" fill="#00507A"/>
<path fill-rule="evenodd" clip-rule="evenodd" d="M491.084 214.71C491.084 217.691 489.25 220.13 487.009 220.13H479.451C477.21 220.13 475.376 217.691 475.376 214.71H491.084Z" fill="#0073B6"/>
<path fill-rule="evenodd" clip-rule="evenodd" d="M506.788 214.71C506.788 217.691 504.955 220.13 502.717 220.13H495.158C492.917 220.13 491.084 217.691 491.084 214.71H506.788Z" fill="#00507A"/>
<path d="M468.615 220.13H466.45V275.514H468.615V220.13Z" fill="#745D38"/>
<path d="M467.532 220.13H466.45V275.514H467.532V220.13Z" fill="#C8A44F"/>
<path d="M443.622 262.33H440.204V275.511H443.622V262.33Z" fill="#F39F1E"/>
<path d="M490.509 262.33H487.09V275.511H490.509V262.33Z" fill="#F39F1E"/>
<path fill-rule="evenodd" clip-rule="evenodd" d="M422.089 262.33H493.315C493.951 262.329 494.561 262.076 495.011 261.626C495.462 261.176 495.716 260.566 495.718 259.929C495.715 259.293 495.461 258.684 495.011 258.234C494.56 257.784 493.951 257.531 493.315 257.529H422.089C421.453 257.531 420.843 257.784 420.393 258.234C419.944 258.684 419.69 259.293 419.688 259.929C419.69 260.566 419.944 261.175 420.393 261.625C420.843 262.075 421.453 262.328 422.089 262.33Z" fill="#F7B300"/>
<path d="M428.401 262.33H424.983V275.511H428.401V262.33Z" fill="#F39F1E"/>
<path d="M475.288 262.33H471.869V275.511H475.288V262.33Z" fill="#F39F1E"/>
<path fill-rule="evenodd" clip-rule="evenodd" d="M371.13 277.745C374.149 308.699 386.926 328.366 400.322 342.284H389.532C378.021 330.344 366.704 304.191 367.464 277.745H371.13Z" fill="#B75720"/>
<path fill-rule="evenodd" clip-rule="evenodd" d="M394.926 342.284H389.529C378.021 330.344 366.704 304.191 367.464 277.745H369.624C369.768 278.882 369.877 280.085 369.923 281.371C371.424 319.669 394.915 342.284 394.915 342.284" fill="#904324"/>
<path fill-rule="evenodd" clip-rule="evenodd" d="M368.753 279.619C369.279 264.47 373.969 252.575 391.626 248.44C390.01 251.896 388.182 255.248 386.151 258.478L385.392 258.344L380.327 257.445L383.447 260.547L384.262 261.36C383.277 262.814 382.259 264.234 381.209 265.62L379.877 265.078L375.699 263.378L379.244 267.785L379.393 267.967C378.863 268.629 378.327 269.284 377.785 269.932L377.339 269.522L374.349 266.681L376.243 271.429L376.329 271.644C373.916 274.417 371.381 277.071 368.753 279.632" fill="#009844"/>
<path fill-rule="evenodd" clip-rule="evenodd" d="M369.49 279.535C383.46 273.64 396.227 272.89 407.409 287.163C403.593 287.15 399.78 286.901 395.994 286.419L395.797 285.659L394.485 280.7L392.983 284.831L392.588 285.912C390.856 285.632 389.14 285.307 387.438 284.937L387.37 283.501L387.154 278.996L384.642 284.061L384.539 284.274C383.716 284.071 382.897 283.86 382.08 283.64L382.277 283.061L383.599 279.156L380.084 282.868L379.925 283.038C376.395 282.025 372.921 280.835 369.49 279.528" fill="#40A437"/>
<path fill-rule="evenodd" clip-rule="evenodd" d="M369.49 279.535C377.714 266.8 387.843 258.992 405.123 264.493C401.963 266.635 398.673 268.581 395.273 270.317L394.688 269.811L390.808 266.45L391.895 270.712L392.178 271.827C390.588 272.57 388.984 273.267 387.367 273.918L386.501 272.771L383.784 269.17L384.561 274.764L384.594 274.997C383.802 275.296 383.007 275.584 382.206 275.861L382.042 275.271L380.94 271.295L380.125 276.332L380.089 276.562C376.595 277.704 373.057 278.685 369.487 279.535" fill="#6CB82D"/>
<path fill-rule="evenodd" clip-rule="evenodd" d="M369.49 279.535C380.378 282.007 388.334 287.039 388.889 300.375C386.612 298.728 384.438 296.943 382.381 295.029L382.584 294.5L383.931 290.969L381.257 292.795L380.555 293.274C379.642 292.36 378.756 291.432 377.897 290.488L378.471 289.599L380.279 286.814L376.603 288.761L376.451 288.842C376.046 288.371 375.645 287.892 375.253 287.411L375.618 287.158L378.086 285.385L374.389 286.099L374.222 286.132C372.549 284.005 370.979 281.807 369.49 279.548" fill="#009844"/>
<path fill-rule="evenodd" clip-rule="evenodd" d="M369.49 279.535C368.294 264.425 363.083 252.748 345.259 249.4C347.029 252.779 349.005 256.047 351.174 259.185L351.934 259.018L356.943 257.898L353.96 261.132L353.18 261.978C354.228 263.386 355.308 264.76 356.418 266.101L357.727 265.498L361.827 263.617L358.487 268.175L358.348 268.365C358.905 269.001 359.469 269.631 360.039 270.254L360.465 269.814L363.326 266.843L361.64 271.67L361.561 271.89C364.093 274.554 366.745 277.092 369.485 279.535" fill="#40A437"/>
<path fill-rule="evenodd" clip-rule="evenodd" d="M369.49 279.535C358.994 268.593 347.566 262.852 331.646 271.548C335.156 273.046 338.755 274.326 342.423 275.382L342.899 274.774L346.069 270.738L345.816 275.126L345.748 276.276C347.451 276.705 349.157 277.086 350.865 277.418L351.498 276.127L353.478 272.075L353.79 277.702V277.937C354.626 278.076 355.461 278.207 356.297 278.33L356.347 277.72L356.679 273.61L358.434 278.421L358.515 278.641C362.164 279.097 365.823 279.401 369.49 279.546" fill="#009844"/>
<path fill-rule="evenodd" clip-rule="evenodd" d="M369.49 279.535C358.285 285.107 350.949 292.704 353.874 307.362C355.918 304.967 357.812 302.449 359.546 299.82L359.186 299.296L356.783 295.806L360.181 297.088L361.07 297.424C361.825 296.189 362.544 294.939 363.227 293.676L362.367 292.861L359.66 290.303L364.18 291.456L364.369 291.501C364.683 290.881 364.992 290.253 365.294 289.625L364.825 289.435L361.668 288.168L365.884 287.966H366.076C367.342 285.205 368.462 282.394 369.49 279.548" fill="#40A437"/>
<path fill-rule="evenodd" clip-rule="evenodd" d="M369.49 279.535C357.548 275.797 347.001 276.193 338.946 288.802C342.079 288.486 345.191 287.978 348.262 287.282L348.366 286.652L349.05 282.473L350.614 285.75L351.022 286.606C352.423 286.238 353.808 285.834 355.175 285.395L355.117 284.213L354.939 280.495L357.401 284.453L357.505 284.618C358.163 284.387 358.819 284.149 359.472 283.906L359.267 283.443L357.872 280.341L361.05 283.126L361.197 283.253C364.015 282.134 366.767 280.885 369.49 279.543" fill="#6CB82D"/>
<path fill-rule="evenodd" clip-rule="evenodd" d="M368.831 276.917C368.255 276.917 367.693 277.089 367.214 277.409C366.735 277.729 366.363 278.184 366.143 278.716C365.923 279.249 365.865 279.834 365.978 280.399C366.091 280.964 366.368 281.482 366.775 281.889C367.183 282.296 367.702 282.574 368.266 282.686C368.831 282.798 369.417 282.74 369.949 282.52C370.481 282.299 370.935 281.926 371.255 281.447C371.575 280.968 371.746 280.405 371.746 279.829C371.746 279.447 371.67 279.068 371.524 278.714C371.377 278.361 371.163 278.039 370.892 277.769C370.621 277.499 370.3 277.284 369.946 277.138C369.593 276.992 369.214 276.917 368.831 276.917Z" fill="#6D2E1B"/>
<path fill-rule="evenodd" clip-rule="evenodd" d="M371.705 278.743C371.129 278.743 370.566 278.915 370.088 279.235C369.609 279.555 369.236 280.011 369.016 280.543C368.797 281.075 368.739 281.661 368.852 282.226C368.965 282.791 369.243 283.309 369.65 283.716C370.058 284.123 370.577 284.4 371.142 284.512C371.707 284.624 372.293 284.566 372.825 284.345C373.356 284.124 373.811 283.75 374.13 283.271C374.45 282.792 374.62 282.229 374.62 281.653C374.62 281.27 374.544 280.891 374.398 280.538C374.251 280.185 374.037 279.864 373.766 279.593C373.495 279.323 373.174 279.109 372.82 278.963C372.467 278.817 372.088 278.742 371.705 278.743Z" fill="#9F4B24"/>
<path fill-rule="evenodd" clip-rule="evenodd" d="M368.183 280.194C367.607 280.194 367.044 280.365 366.565 280.685C366.086 281.005 365.713 281.46 365.493 281.992C365.272 282.524 365.214 283.109 365.327 283.674C365.439 284.239 365.717 284.758 366.124 285.165C366.531 285.573 367.05 285.85 367.615 285.963C368.18 286.075 368.765 286.017 369.297 285.797C369.829 285.576 370.284 285.203 370.604 284.724C370.924 284.245 371.095 283.682 371.095 283.106C371.095 282.334 370.788 281.593 370.242 281.047C369.696 280.501 368.955 280.194 368.183 280.194Z" fill="#C8642F"/>
</g>
<defs>
<filter id="filter0_f_1925_66" x="306" y="90" width="494" height="277" filterUnits="userSpaceOnUse" color-interpolation-filters="sRGB">
<feFlood flood-opacity="0" result="BackgroundImageFix"/>
<feBlend mode="normal" in="SourceGraphic" in2="BackgroundImageFix" result="shape"/>
<feGaussianBlur stdDeviation="17.5" result="effect1_foregroundBlur_1925_66"/>
</filter>
<clipPath id="clip0_1925_66">
<path d="M341 125H765V316C765 324.837 757.837 332 749 332H341V125Z" fill="white"/>
</clipPath>
<clipPath id="clip1_1925_66">
<rect width="639" height="335" fill="white" transform="translate(331 14)"/>
</clipPath>
<clipPath id="clip2_1925_66">
<path d="M341 0H765V316C765 324.837 757.837 332 749 332H341V0Z" fill="white"/>
</clipPath>
</defs>
</svg>
